<svg xmlns="http://www.w3.org/2000/svg" viewBox="0 0 764 352" style="background-color:#030d22"><path fill="#420290" d="M15.81 0h1.75q-.01 1.18-1.81 1.49a.45.44.4 0 1-.52-.52q.1-.57.58-.97Zm3.22-.04 1.03.04.15 10.15q.01.6.61.6h1.73q.36 0 .41.36l.04.32q.05.33-.28.37c-1.29.18-7 .6-7.36-.34q-.27-.68.46-.69l2.38-.03q.58 0 .59-.58l.24-10.2ZM32.56 0h1.25q1.01 2.59-1.26 4.05-.5.32 0 .63c5.61 3.58-1.18 10-6.06 6.01q-.45-.37-.04-.77c.61-.6 6.2 2.9 6.59-1.84.2-2.5-1.99-2.49-3.63-3.23q-.3-.14-.13-.42l.14-.25q.12-.19.34-.18 1.82.07 2.74-1.5.24-.41.04-.84-.39-.85.02-1.66Zm6.5 0 .95.01q-1.47 3.1.32 5.55.36.49.96.44 5.2-.45 3.01-5.95l1.3-.1q3.57 9.93-5.71 12.65-.59.18-.81-.4-.06-.13-.11-.29-.11-.33.23-.41 3.9-.9 5.77-4.34a.58.58 0 0 0-.81-.78c-4.59 2.71-8.24-2.75-5.1-6.38Z"/><path fill="#fefefe" d="m79.14-.01 1.64.01.16 55.43a.57.57 0 0 0 .57.57h26.96a1.32 1.31-24.5 0 1 .86.32c.95.82.04 1.42-.74 1.42q-14.52.05-29.05-.01-.51 0-.5-.5l.1-57.24Zm47.17.01h1q1.01 1.27.5 3.04a.75.75 0 0 0 .72.96h27.43a.79.79 0 0 1 .71 1.15c-.5.99-25.09.61-28.1.64q-.57 0-.57.57l-.02 23.17q-.01.45.45.45 13.29.12 26.56-.17 1.55-.03 1.79 1.23a.6.59 84.7 0 1-.58.71h-29.44q-.59 0-.61-.59-.5-15.68.16-31.16Zm81.71-.01 1.29.01.38 9.63q.03.62.65.62h2.28q.46 0 .61.44l.1.3q.15.45-.29.63c-7.32 2.92-5.88-7.26-5.02-11.63Zm-22.43 3.27.23 5.87a1.19 1.18 85 0 0 1.34 1.13q1.36-.18 2.69.2 1.4.4.08 1.01-3.33 1.56-5.77-.75-.41-.39-.41-.96V3.3q0-.76-.76-.78l-1.6-.04q-.3-.01-.34-.31l-.04-.28q-.06-.45.36-.59l2.91-.93q.44-.15.87.03c.82.33 4.1.56 4.07 1.52q-.02.63-.64.68l-2.59.21q-.41.04-.4.45Zm-10.11 4.6-4.24-1.69q-.44-.18-.71-.58c-2.94-4.43 3.95-5.5 6.75-3.74q.38.24.35.68c-.07 1.15-3.79-.02-5.12.45a.89.89 0 0 0-.03 1.67c2.21.85 6.09 1.59 5.53 4.84-.61 3.49-6.21 2.84-8.26 1.42q-.61-.42-.09-.95l.25-.25q.37-.36.82-.12 2.25 1.17 4.67.4a1.13 1.13 0 0 0 .08-2.13Zm22.25 1.56c.43-1.47 1.83-9.17 3.97-8.35q.48.19.32.68c-1.28 3.95-2.97 14.05-7.89 14.53q-.63.07-.63-.57v-.3q0-.3.26-.45l2.45-1.45q.47-.28.3-.81L192.8 1.62q-.28-.82.57-.66l.9.18q.53.1.69.61l2.37 7.68q.2.65.4-.01Zm20.91-1.51q.29 1.46 1.52 2.2.4.25.88.19l3.18-.34a.7.69-59 0 1 .33 1.34c-10.71 4.39-10.12-12.24-2.31-10.23 2.62.67 3.4 3.26 3.25 5.69q-.02.46-.48.47l-5.91.09q-.58.01-.46.59Zm.56-2.38 3.72.09q.51.01.51-.51c0-3.18-4.38-3.25-4.64-.03a.42.42 0 0 0 .41.45Zm12.06-2.58a.91.9-44 0 0-.03 1.74c2.71.83 6.57 1.53 5.39 5.49q-.15.49-.58.76-3.52 2.25-7.35.14-.59-.33-.27-.93l.22-.42q.3-.55.85-.24c1.3.76 6.21 1.47 5.23-.98-.89-2.22-7.56-1.35-5.74-5.72 1.23-2.96 8.39-1.96 7.44.2q-.24.54-.78.3-2.11-.94-4.38-.34Zm24.9 9.02c-6.89-1.16-4.83-14.47 4-10.19q.34.17.34.55v.37q0 .75-.73.6c-4.31-.87-6.75-.02-5.33 4.92.86 2.99 3.19 2.1 5.44 1.49a.43.42-16.2 0 1 .52.28c.66 2.05-3.02 2.18-4.24 1.98Zm13.53-4.01-4.52-1.81q-.55-.22-.83-.74c-2.65-4.97 4.75-4.78 7.2-3.56a.71.7-46.1 0 1 .02 1.25q-.78.42-1.52-.11-.41-.28-.9-.26l-2.55.09q-.76.02-.61.77l.05.28q.11.56.64.79l4.39 1.92q.57.25.74.85c1.46 5.41-5.21 5.39-8.01 3.48q-.45-.3-.23-.79c.35-.75 4.34.25 6.01-.19a1.04 1.04 0 0 0 .12-1.97Zm8.75-4.97a1 1 0 0 0 .16 1.94c10.17 1.67 3.56 10.5-2.89 6.05q-.44-.3-.29-.81c.53-1.83 4.9 1.82 6.21-.79 1.03-2.07-4.45-2.56-5.46-4.09-2.77-4.26 4.49-4.83 6.93-3.54q.49.26.38.79l-.07.37q-.15.74-.82.39-2-1.03-4.15-.31Zm13.83.93c.44-.88 2.01-3.79 3.35-2.78q.4.31.13.73l-2.47 3.87q-.29.46.01.92l3.02 4.57q.28.42-.16.68c-1.81 1.05-3.3-2.44-3.99-3.59q-.33-.54-.72-.05c-1.03 1.3-1.73 3.89-3.67 3.73a.57.57 0 0 1-.43-.88l2.98-4.5q.28-.42 0-.84l-2.75-4.08a.48.48 0 0 1 .43-.75q2.56.15 3.01 2.77a.67.67 0 0 0 1.26.2Z"/><ellipse fill="#fefefe" transform="rotate(83.3 116.571 142.422)" rx="2.04" ry="1.86"/><path fill="#fefefe" d="m199.63 26.99-.18-3.57q-.03-.67.64-.67h.95q.55 0 .55.54l.18 14.12q.02 1.14-1 .61l-.88-.46q-.51-.26-1.01-.02c-6.54 3.15-7.16-6.18-4.55-9.74q.29-.4.77-.55 2-.63 4.01.13.56.21.52-.39Zm-2.392 9.43a3.93 2.42 90.9 0 0 2.482-3.892 3.93 2.42 90.9 0 0-2.358-3.967 3.93 2.42 90.9 0 0-2.482 3.891 3.93 2.42 90.9 0 0 2.358 3.968Z"/><ellipse fill="#fefefe" transform="rotate(6.1 -139.093 1644.183)" rx="1.41" ry="1.1"/><ellipse fill="#fefefe" transform="rotate(5.2 -142.507 2717.527)" rx="1.37" ry="1.1"/><path fill="#420290" d="m18.07 26.33-2.18 1.1q-.31.16-.49-.14l-.15-.26q-.2-.35.14-.57l3.87-2.48a.64.64 0 0 1 .99.54v11.61q0 .62.63.62h1.62q.49 0 .5.49v.28q.01.26-.25.29c-1.39.17-7.06.58-7.39-.36q-.24-.67.47-.68l2.3-.03q.62-.01.62-.62v-9.37q0-.76-.68-.42Zm10.49 6.58 2.41.07q.67.02.76-.65l.35-2.74a.67.67 0 0 1 1.33.07l.08 2.62q.02.45.46.57l.91.24q.7.18.07.53l-1.14.64a1 .99 65.5 0 0-.44 1.21q.43 1.15-.09 2.32-.39.87-1 .14-1-1.18-.22-2.65a.87.87 0 0 0-.77-1.28h-4.53q-.69 0-.45-.65c.47-1.27 3.45-9.5 4.54-9.37a.54.53 15 0 1 .43.73l-3.13 7.52q-.27.66.43.68Z"/><path fill="#420290" d="M42.34 38.08a7.09 4.4 90 0 1-4.4-7.09 7.09 4.4 90 0 1 4.4-7.09 7.09 4.4 90 0 1 4.4 7.09 7.09 4.4 90 0 1-4.4 7.09Zm.84-12.71c-4.13-.46-3.71 5.79-3.27 8.26a.31.31 0 0 0 .58.09l3.54-6.74a1.1 1.1 0 0 0-.85-1.61Zm-1.53 11.31c3.96.49 3.56-5.43 3.59-7.93a.55.54 59 0 0-1.03-.26l-3.39 6.64q-.7 1.37.83 1.55Z"/><path fill="#fefefe" d="m176.14 36.48 1.87.03q.72.01.49.69c-.4 1.19-7.84 1.23-8.39.06a.52.52 0 0 1 .42-.74l2.28-.24q.48-.04.5-.53l.24-6.54q.03-.67-.65-.69l-1.84-.03q-.49-.01-.69-.47c-.66-1.57 4.04-1 4.61-.9q.52.09.52.62v8.09q0 .64.64.65Zm8.37-8.96q2.62-1.3 4.78.34.48.37.5.98l.17 8.42q.02.74-.72.74h-.61q-.63 0-.63-.62l-.01-7.5a1.43 1.43 0 0 0-2.15-1.24l-1.5.86q-.59.34-.59 1.02v6.85q0 .63-.63.63h-.73q-.62 0-.62-.61l-.06-9.87q0-.93.83-.51l.98.51q.49.25.99 0Zm28.35 8.35a.4.4 0 0 1 .4.53q-.38 1.09-1.71 1.36-6.28 1.27-6.67-5.04c-.48-7.73 9.78-7.76 8.84.05q-.05.42-.47.44l-5.56.18q-.67.02-.63.69c.22 3.23 3.88 1.92 5.8 1.79Zm-5.36-4.19 3.63-.1q.46-.02.52-.47c.42-2.81-4.18-3.6-4.6.07a.45.44-87.2 0 0 .45.5Zm13.04 2.68c-.98 1.23-1.85 4.3-3.85 3.5q-.57-.22-.22-.72l3.04-4.38q.35-.49.01-.99l-2.78-4.17q-.3-.46.24-.57 1.25-.28 2.27.82.22.24.37.54l.94 1.82q.38.74.79.03c.66-1.13 1.51-4.15 3.42-2.99q.38.23.14.61l-2.45 3.78q-.35.54.01 1.07l2.95 4.41a.57.57 0 0 1-.47.88h-.8q-.61 0-.93-.53l-1.85-3.05q-.38-.62-.83-.06Zm24.51-5.66q-1.87-.17-3.73-.39-3.59-.42-.03-1.07 2.79-.5 5.62-.13.6.08.6.68c-.03 5.57 1.86 14.05-6.82 14.22a.42.41 3.5 0 1-.42-.47l.07-.42q.09-.58.67-.66 2.27-.33 3.83-1.9.36-.36.38-.86l.35-8.41q.02-.54-.52-.59Zm12.88 5.24-4.55-1.84q-.55-.23-.79-.77c-2.41-5.5 7.69-5.18 7.41-2.63q-.05.46-.51.41l-4.19-.42q-.8-.08-.8.72v.63q0 .67.64.86c1.74.52 4.25 1.06 5.03 2.83 2.26 5.11-8.45 5.53-8.15 2.2a.58.58 0 0 1 .87-.45q2.36 1.39 5.02.37a1.03 1.03 0 0 0 .02-1.91Z"/><ellipse fill="#fefefe" transform="rotate(89.3 98.164 135.816)" rx="2.02" ry="1.87"/><path fill="#fefefe" d="M195.09 50.58q-1.34.48-2.51-.36a.65.65 0 0 1 .37-1.18l4.16-.06q.64-.01.64.63v11.84q0 .77.76.78l2.34.04q.38 0 .54.35l.1.25q.23.51-.28.74c-7.6 3.4-5.44-9.16-5.48-12.58a.48.48 0 0 0-.64-.45Z"/><path fill="#420290" d="m18.08 52.34-2.16 1.07q-.43.21-.58-.24l-.11-.36q-.07-.24.15-.37l4.1-2.53q.76-.47.77.43v11.87q0 .62.62.55 1.34-.13 2.63.21 1.55.4-.02.68-4.05.73-8.12.12-1.83-.27-.05-.77 1.43-.41 2.88-.23.56.07.56-.5v-9.52q0-.75-.67-.41Zm10.38 6.53 2.37.11q.68.03.85-.63c.24-.95.12-3.05 1.05-3.34q.7-.22.71.5l.07 2.64q.02.47.43.69l.41.22q.91.49-.03.92l-.75.34q-.6.28-.33.87.6 1.31-.01 2.65-.32.72-.87.14-1.13-1.2-.33-2.83a.8.8 0 0 0-.72-1.15h-4.57q-.69 0-.45-.65c.45-1.22 3.55-9.5 4.5-9.37a.53.53 0 0 1 .42.72l-3.12 7.61q-.22.54.37.56Zm15.94 3.91q1.01-.18 2.02.15 1.36.44-.04.74-3.72.78-7.43-.01a.4.4 0 0 1 .06-.79l2.56-.17q.73-.05.74-.78l.13-9.2q.02-.83-.72-.46l-2.37 1.19q-.45.23-.62-.25-.04-.12-.08-.25-.11-.3.16-.48l3.79-2.38a.64.64 0 0 1 .98.54l.08 11.54q.01.74.74.61Z"/><path fill="#fefefe" d="M136.75 64v3.25q0 .75-.75.75h-.74q-.49 0-.5-.49l-.04-14.07q0-.52.5-.38 1.7.49 3.74-.05c6.22-1.66 6.47 13.9-1.69 10.64q-.52-.2-.52.35Zm4.407-7.224a1.99 1.99 0 0 0-1.994-1.986h-.42a1.99 1.99 0 0 0-1.986 1.994l.006 3.48a1.99 1.99 0 0 0 1.993 1.986h.42a1.99 1.99 0 0 0 1.987-1.994l-.006-3.48Zm10.953-.906q-.23-.95-1.35-1.17-.5-.1-.99.03-1.59.42-3.01-.22-.96-.43-.05-.97c1.95-1.16 7.45-1.06 7.37 2.45q-.12 5.04.62 7.52.27.9-.61.55l-1.57-.64q-.39-.15-.77.04c-2.73 1.37-7 .01-5.93-3.65.91-3.14 3.35-2.73 5.77-3.15q.68-.11.52-.79Zm-3.56 6.18c2.44.98 3.84-.7 3.41-3.06q-.07-.42-.49-.46-2.09-.25-3.41 1.04a1.51 1.51 0 0 0 .49 2.48Zm13.5-7.75q1.78-1.8 4.4-1.22.53.12.48.66l-.26 2.73q-.08.87-.89.54-1.1-.46-.7-1.81.14-.45-.33-.45h-.59q-.49 0-.77.4-2.07 2.98-1.48 6.69.08.54.62.57.83.03 1.6.32 1.61.6-.07.99-2.89.66-5.77.02a.49.49 0 0 1-.06-.94l1.36-.49q.41-.15.41-.59v-6.24q0-.56-.52-.75l-1.2-.45q-.65-.24-.15-.72c.66-.63 3.79-1.13 3.61.43q-.09.7.31.31Zm12 8.04 3.55-.55a.57.56 12.8 0 1 .56.88c-2.13 3.08-7.28 1.04-8.13-1.81-1.54-5.14 1.42-8.81 7.21-7.57a1.27 1.26-85.6 0 1 1 1.18c.12 2.16-4.89-1.94-6.25 2.46q-.88 2.87 1.18 5.11.36.39.88.3Zm15.42-.36q.45.09.28.52c-1.69 4.39-11.1.22-8.02-6.65 2.4-5.35 9.5-2.93 8.41 2.89q-.1.51-.62.51h-5.47q-.64 0-.55.63c.59 3.95 3.74 1.65 5.97 2.1Zm-1.28-4.84c.28-3.1-4.1-3.47-4.63-.08q-.1.67.57.68l3.39.02q.62 0 .67-.62ZM207 61.75V55.5q0-.58-.54-.78l-.99-.38q-.48-.18-.34-.67c.37-1.31 3.01-.62 3.66.11q.35.39.76.08 1.59-1.2 3.64-.79.6.12.58.74l-.07 2.58q-.04 1.11-1.02.59-.95-.51-.65-1.62.13-.45-.33-.56c-2.53-.61-3.04 5.38-2.86 6.89q.07.56.62.67l1.35.26q.64.12.41.73c-.42 1.14-5.07.61-5.96.36q-.87-.25-.19-.85.55-.49 1.43-.56.5-.04.5-.55Zm14.04.59 3.56-.51a.55.54 10.7 0 1 .56.81q-.55.95-1.57 1.22c-10.66 2.82-7.84-16.01 1.39-9.83q.44.29.23.78c-.72 1.59-4.62-2.24-6.12 1.87q-1.07 2.93 1.07 5.33.36.4.88.33Z"/><path fill="#030d22" d="M183.56 57.06c.53-3.39 4.91-3.02 4.63.08q-.05.62-.67.62l-3.39-.02q-.67-.01-.57-.68Zm-35.01 4.99a1.51 1.51 0 0 1-.49-2.48q1.32-1.29 3.41-1.04.42.04.49.46c.43 2.36-.97 4.04-3.41 3.06Z"/><ellipse fill="#fefefe" transform="rotate(88.6 31.693 96.05)" rx="2.06" ry="1.88"/><path fill="#fefefe" d="M82.15 76.36q1.48 1.86-.69.89l-3.73-1.65q-2.1-.93.19-1.16 2.5-.25 4.23 1.92Zm11.75-.13q2.57 2.22-.59.96l-3.42-1.36q-.63-.26-.37-.89c.76-1.82 3.35.4 4.38 1.29Zm11.36-.33q.34.25.57.72a.49.48 88.4 0 1-.62.66l-3.83-1.56q-.58-.24-.34-.82c.61-1.47 2.73-.24 3.43.42q.03.03.79.58Z"/><path fill="#420290" d="M18.22 78.35c-.66.17-2.47 1.54-2.94.79q-.31-.51.2-.83l3.98-2.42q.78-.47.79.44v11.8q0 .62.63.62h1.67q.36 0 .41.36l.04.32q.05.33-.28.37c-1.29.18-7 .6-7.36-.34q-.27-.68.46-.69l2.31-.03q.62-.01.62-.62v-9.37q0-.54-.53-.4Zm10.34 6.56 2.27.06q.78.02.89-.75l.41-2.83a.53.53 0 0 1 .96-.23q.87 1.27.19 2.77-.27.59.34.79l1.07.37q.82.29.05.67l-1.17.57q-.56.28-.32.86.52 1.23.09 2.52-.25.74-.85.26l-.42-.33q-.44-.35-.35-.9l.28-1.9q.12-.84-.73-.84h-4.5q-.79 0-.5-.74c.05-.11 3.32-9.23 4.56-9.28q.77-.04.47.68l-3.17 7.57q-.28.66.43.68Zm11.95 3.84 5.18.01a.47.47 0 0 1 .08.93q-3.31.59-6.65.22-2-.23-.58-1.65c2.12-2.14 7.03-6.25 5.44-9.88q-.21-.47-.68-.69-2.5-1.21-4.56.97-.75.81-.73-.29c.04-2.57 4.76-2.36 6.02-1.49 4.78 3.35-1.85 8.92-3.75 11.39q-.37.47.23.48Z"/><path fill="#1c1347" d="M764 97.05v25.9l-688.94.04q-.92 0-.92-.92l-.03-24.52q0-.54.53-.54l689.36.04Zm-457.25 3.27a1.31 1.31 0 0 0-1.31-1.31h-.88a1.31 1.31 0 0 0-1.31 1.31v1.32a1.31 1.31 0 0 0 1.31 1.31h.88a1.31 1.31 0 0 0 1.31-1.31v-1.32Zm-115.447 1.065a.77.77 0 0 0-.369-1.025l-1.249-.587a.77.77 0 0 0-1.024.369l-7.724 16.413a.77.77 0 0 0 .369 1.025l1.249.587a.77.77 0 0 0 1.024-.369l7.724-16.413Zm55.617.565a1.98 1.98 0 0 0-1.98-1.98 1.98 1.98 0 0 0-1.98 1.98 1.98 1.98 0 0 0 1.98 1.98 1.98 1.98 0 0 0 1.98-1.98Zm-83.78 3.28c-6.26-1.9-6.6 5.69-5 9.36a1.91 1.91 0 0 0 1.71 1.16l6.3.17q.57.01.58-.57l.07-13.63q0-.64-.63-.71l-1.88-.22q-1.08-.13-.65.87.7 1.59.19 3.21-.17.51-.69.36Zm59.06 7.68-.55-4.69q-.08-.72.64-.72h2.53q.64 0 .66-.64l.03-1.22q.01-.64-.62-.64h-2.16q-.54 0-.82-.46-.46-.79.15-1.55.63-.78-.37-.75l-1.88.06q-.58.02-.68.59l-.29 1.66q-.11.67-.77.51c-1.42-.36-1.93.92-1.48 2q.16.41.61.43l1.07.03q.65.03.67.68c.15 5.18-.65 9.46 6.84 7.4q.66-.18.44-.82l-.41-1.19q-.18-.51-.71-.41l-2.03.38q-.78.14-.87-.65Zm12.45.59a.72.72 0 0 1-.83-.68l-.24-4.81q-.02-.5.47-.5h2q.55 0 .68-.53l.3-1.25q.18-.71-.56-.72l-2.43-.03q-.77-.01-.59-.76l.34-1.33q.21-.86-.67-.72l-2.36.37q-.8.12-.56.9.47 1.52-.84 1.57-.54.02-.9.41c-1.22 1.33.37 1.94 1.43 2.09q.61.09.61.7v4.84q0 .62.38 1.11 2.39 3.09 6.49 1.25.55-.24.41-.83l-.18-.82q-.16-.69-.87-.58l-2.08.32Zm32.33-.44.1-.28q.12-.31.46-.29c3.26.24 7.31-1.86 4.49-5.67q-.23-.32.16-.32h.88q.82 0 .73-.82l-.19-1.56q-.07-.65-.67-.4c-2.57 1.05-7.42.89-8.86 3.09q-1.64 2.53.86 4.39.46.34.02.71-1.27 1.08-.65 2.54c.96 2.28 4.05 1.14 5.92 1.86q1.14.44-.01.85-2.64.95-4.79-.54a1.37 1.36 39.3 0 0-1.75.17c-3.78 3.85 7.44 2.99 8.74 2.52a2.1 2.09 81.7 0 0 1.37-1.85c.27-4.84-3.92-3.42-6.72-4.23q-.13-.04-.09-.17Zm-181.1-4.79-.41-1.6q-.18-.66-.8-.39l-2.41 1.02q-1.06.46-.57-.59l.78-1.68q.31-.69-.43-.8l-1.8-.27a.95.95 0 0 0-1.09 1.02l.13 1.76q.07.93-.72.45l-1.57-.93q-.64-.38-.92.31l-.77 1.87q-.24.61.39.77l2.15.58q.92.25.21.89l-1.45 1.3q-.44.4.02.79l1.73 1.46q.52.44.83-.16l1-1.9q.46-.87.92.01l.89 1.69q.34.65.93.21l1.76-1.3q.41-.31.05-.68l-1.54-1.54q-.46-.46.14-.7 2.66-1.11 5.33-.03.69.28.19.84l-1.38 1.54q-.37.42.07.75l1.74 1.29q.65.49.97-.27l.82-1.96q.34-.82.79-.05l1.19 2.05q.26.45.69.16l1.67-1.15q.59-.41.08-.91l-1.6-1.61q-.61-.6.23-.75l2.15-.38q.63-.12.5-.75l-.4-1.9q-.16-.75-.85-.44l-2.18.94q-.59.25-.59-.39v-2.22q0-.64-.64-.63l-1.41.03q-.82.02-.76.84l.17 2.06q.07.77-.6.37l-1.75-1.07q-.7-.42-.97.35l-.6 1.71q-.18.5-.31-.01Zm270.36-.27-.52-1.37q-.24-.63-.83-.33l-1.83.93q-.7.35-.58-.42l.35-2.13q.12-.78-.66-.72l-2.38.16q-.8.05-.32.69.73.97.37 2.07-.22.64-.79.29l-1.57-.97q-.75-.46-.97.39l-.54 2.02q-.17.64.48.78l1.98.39q1 .2.23.87l-1.5 1.29q-.54.47.02.92l1.7 1.37q.48.4.82-.14l1.28-2.07q.36-.57.66.03l1.05 2.04q.34.65.88.17l1.59-1.43q.44-.4.01-.82l-1.37-1.32q-.53-.5.14-.81 2.62-1.19 5.24 0 .76.35.15.92l-1.4 1.29q-.48.46.06.84l1.76 1.25q.56.4.88-.21l.88-1.68q.49-.94.98-.01l.97 1.85q.24.46.65.15l2.02-1.5q.51-.37.01-.77l-1.76-1.43q-.76-.62.2-.83l2.46-.56q.61-.14.37-.71l-.84-2.01q-.25-.6-.8-.26l-1.67 1.01q-.79.48-.69-.44l.27-2.27q.07-.55-.49-.54l-2.44.09q-.61.02-.5.62l.43 2.31q.14.71-.5.37l-2.09-1.14q-.54-.29-.76.28l-.57 1.51q-.26.69-.52-.01Zm-240.48 3.94a.36.36 0 0 1-.7-.02l-1.32-6.68a.36.36 0 0 0-.37-.29l-2.85.12a.36.36 0 0 0-.32.47l3.3 10.2a.36.36 0 0 0 .34.25h3.23a.36.36 0 0 0 .34-.25l3.39-10.21a.36.36 0 0 0-.33-.47l-2.68-.07a.36.36 0 0 0-.36.27l-1.67 6.68Zm10.48-3.76c-.02-1.31 3.27-.36 3.92-.2q.63.15.92-.43l.39-.8q.32-.65-.35-.95-3.49-1.6-6.9-.2-.45.18-.7.6-.95 1.67-.33 3.49.2.58.77.81l3.89 1.61q.61.25.23.79c-.9 1.31-3.01.22-4.14-.12q-.56-.17-.91.29l-.7.92q-.43.56.2.9c2.87 1.53 11.6 2 8.88-4.02q-.24-.53-.79-.72l-3.94-1.37q-.43-.15-.44-.6Zm12.28 5q-1.5-2.36-.26-4.86.26-.53.86-.56c1.33-.05 4.18.6 4.42-1.21q.07-.5-.38-.74c-11.46-6.04-11.63 15.62.07 9.18q.61-.33.22-.9l-.51-.75q-.29-.44-.81-.33l-2.7.55q-.59.12-.91-.38Zm12.238 2.969a5.65 5.28 88.9 0 0 5.171-5.75 5.65 5.28 88.9 0 0-5.387-5.548 5.65 5.28 88.9 0 0-5.171 5.75 5.65 5.28 88.9 0 0 5.387 5.548Zm22.262-4.649h5.8q.63 0 .6-.63-.07-1.24-.38-2.45c-1.23-4.8-8.17-4.6-9.65.05-2.04 6.4 3.25 8.48 8.46 6.91a1.04 1.04 0 0 0 .51-1.64c-1.47-1.86-3.8 1.08-5.77-1.34q-.74-.9.43-.9Zm25.95 1.72q-2.16.68-4.22-.53-.53-.32-.84.21l-.66 1.11q-.38.65.28 1c3.08 1.64 10.42 1.88 8.82-4.01q-.16-.56-.71-.77l-4.26-1.58q-.42-.16-.39-.6c.06-1.14 3.21-.18 3.94-.05q.62.12.91-.44l.4-.77q.3-.59-.28-.91c-6.51-3.6-13.54 3.82-3.04 6.12a.63.63 0 0 1 .05 1.22Zm9.18-1.03a.44.44 0 0 1 .37-.69h5.69q.48 0 .51-.48c.15-2.29-.45-4.65-2.76-5.61-10.31-4.31-9.76 16.2 1.98 9.54q.52-.29.26-.83c-1.21-2.52-4.11.96-6.05-1.93Zm39.07 1.35a.43.43 0 0 1-.47-.43v-7.68a.43.43 0 0 0-.43-.43h-4.96a.43.43 0 0 0-.43.48l.21 1.87a.43.43 0 0 0 .51.38l1.34-.27a.43.43 0 0 1 .51.42v5.19a.43.43 0 0 1-.43.43h-2.14a.43.43 0 0 0-.43.43v1.61a.43.43 0 0 0 .43.43l8.14.05a.43.43 0 0 0 .43-.43v-1.8a.43.43 0 0 0-.47-.43l-1.81.18Zm5.62-8.56a.73.73 0 0 0-.84.72v9.55q0 .75.75.75h2.12q.63 0 .63-.62v-6.95q0-.64.63-.65l1.23-.04q.64-.01.64.62v7.04q0 .65.65.62l2.06-.08q.73-.03.68-.76c-.21-2.99 1.45-11.43-4.07-9.96q-1.11.29-4.48-.24Zm26.3 2.99c.59-.93 3.09-.14 3.99.04q.66.14.95-.47l.39-.79q.37-.77-.42-1.08-3.28-1.29-6.61-.27-.54.17-.84.66-1.16 1.91-.27 3.86.22.49.72.68l4.04 1.55a.55.54-44.5 0 1-.01 1.02q-2.05.75-3.99-.46-.5-.32-.87.15l-.87 1.08q-.51.65.23 1.02 4.15 2.09 8.37.09.56-.27.61-.89l.19-2.78q.06-.79-.69-1.06l-4.71-1.74q-.49-.17-.21-.61Zm24.84.38c.14 3.65.56 8.06-4.07 9.01q-.56.12-.67.68l-.23 1.15q-.16.8.66.8c8.57-.03 7.79-8.61 7.61-14.42q-.02-.61-.63-.6l-5.76.09q-.72.01-.85.73c-.46 2.55 2.21 1.4 3.4 1.82q.52.18.54.74Zm12.45 4.84q-2 .74-3.9-.37-.55-.32-.94.17l-.85 1.04q-.52.64.23.99c2.49 1.18 10.83 1.92 9-3.42-.66-1.96-3.27-2.32-5.11-2.83a.62.62 0 0 1 .06-1.21c1.35-.24 4.77 1.42 4.83-.88q.02-.53-.44-.8-2.68-1.58-5.85-.76c-2.31.59-3.44 4.43-.9 5.54q1.87.81 3.86 1.49a.55.55 0 0 1 .01 1.04Zm10.78 2.99a5.68 5.26 89.3 0 0 5.19-5.744 5.68 5.26 89.3 0 0-5.33-5.616 5.68 5.26 89.3 0 0-5.19 5.744 5.68 5.26 89.3 0 0 5.33 5.616Zm11.16-8.28 1.19-.18q.69-.1.69.6v7.06q0 .63.63.63l2.38-.03q.55 0 .53-.55l-.36-8.69q-.03-.51-.41-.85-1.85-1.62-4.35-.61-.36.15-.74.09l-2.97-.43q-.71-.11-.71.61v9.83q0 .63.63.63l2.23-.03q.64-.01.64-.65v-6.71q0-.63.62-.72Zm-232.495 6.268a2.26 2.01 4 0 0-2.115-2.163 2.26 2.01 4 0 0-2.395 1.847 2.26 2.01 4 0 0 2.115 2.163 2.26 2.01 4 0 0 2.394-1.847Zm188.388.037a2.33 2.03 4.3 0 0-2.17-2.2 2.33 2.03 4.3 0 0-2.476 1.85 2.33 2.03 4.3 0 0 2.17 2.2 2.33 2.03 4.3 0 0 2.476-1.85Z"/><rect fill="#ff2d95" x="303.25" y="99.01" width="3.5" height="3.94" rx="1.31"/><rect fill="#ff2d95" x="-1.46" y="-9.84" transform="rotate(25.2 -150.692 470.812)" width="2.92" height="19.68" rx=".77"/><circle fill="#ff2d95" cx="244.94" cy="101.95" r="1.98"/><path fill="#ff2d95" d="M163.83 104.87q.51-1.62-.19-3.21-.43-1 .65-.87l1.88.22q.63.07.63.71l-.07 13.63q-.01.58-.58.57l-6.3-.17a1.91 1.91 0 0 1-1.71-1.16c-1.6-3.67-1.26-11.26 5-9.36q.52.15.69-.36Zm.151 4.248a1.33 1.33 0 0 0-1.29-1.369l-.54-.016a1.33 1.33 0 0 0-1.368 1.29l-.084 2.839a1.33 1.33 0 0 0 1.29 1.369l.54.016a1.33 1.33 0 0 0 1.368-1.29l.084-2.839Z"/><path fill="#05bec8" d="m28.79 110.76 2.6-.03q.61 0 .46-.59-.41-1.6.25-3.01.39-.86 1.04-.16 1.04 1.12.22 2.84-.27.57.32.78l1.63.58q1.45.52-.07.75-2.61.38-1.56 3.13.29.75-.51.86l-.74.1q-.68.1-.68-.59v-2.67q0-.5-.5-.5h-4.32a.85.85 0 0 1-.79-1.17l3.6-8.76q.19-.47.69-.55.22-.05.45-.02a.74.74 0 0 1 .61 1.02l-3.12 7.36q-.27.63.42.63Zm-7.84 3.68 1.85.18a.67.66 47.3 0 1-.05 1.33l-7.31.07q-1.43.01-.38-.96.94-.87 2.37-.56a.87.87 0 0 0 1.06-.85l.07-8.63q.01-.81-.72-.45l-1.78.91q-.43.22-.78-.12l-.2-.21q-.45-.44.09-.77l3.7-2.3a1.07 1.07 0 0 1 1.63.91v10.95q0 .46.45.5Zm22.73-4.54-2.53-.86q-.39-.13-.36-.53.06-.69.79-.7c3.56-.06 3.23-4.8-.6-4.26q-.54.07-.99.37-.78.5-1.72.21-.72-.22-.13-.7c4.94-4.04 11.02 1.8 6.18 4.71q-.54.32.01.62l1.11.59q.49.26.64.79c1.58 5.53-4.63 7.41-8.27 4.49a.55.54-48.4 0 1-.04-.8c1.32-1.33 4.17 3 6.84-1.34a1.76 1.75-64.9 0 0-.93-2.59Z"/><path fill="#ff2d95" d="m223.07 113.56 2.03-.38q.53-.1.71.41l.41 1.19q.22.64-.44.82c-7.49 2.06-6.69-2.22-6.84-7.4q-.02-.65-.67-.68l-1.07-.03q-.45-.02-.61-.43c-.45-1.08.06-2.36 1.48-2q.66.16.77-.51l.29-1.66q.1-.57.68-.59l1.88-.06q1-.03.37.75-.61.76-.15 1.55.28.46.82.46h2.16q.63 0 .62.64l-.03 1.22q-.02.64-.66.64h-2.53q-.72 0-.64.72l.55 4.69q.09.79.87.65Zm11.58-.06 2.08-.32q.71-.11.87.58l.18.82q.14.59-.41.83-4.1 1.84-6.49-1.25-.38-.49-.38-1.11v-4.84q0-.61-.61-.7c-1.06-.15-2.65-.76-1.43-2.09q.36-.39.9-.41 1.31-.05.84-1.57-.24-.78.56-.9l2.36-.37q.88-.14.67.72l-.34 1.33q-.18.75.59.76l2.43.03q.74.01.56.72l-.3 1.25q-.13.53-.68.53h-2q-.49 0-.47.5l.24 4.81a.72.72 0 0 0 .83.68Zm32.42-.27c2.8.81 6.99-.61 6.72 4.23a2.1 2.09 81.7 0 1-1.37 1.85c-1.3.47-12.52 1.33-8.74-2.52a1.37 1.36 39.3 0 1 1.75-.17q2.15 1.49 4.79.54 1.15-.41.01-.85c-1.87-.72-4.96.42-5.92-1.86q-.62-1.46.65-2.54.44-.37-.02-.71-2.5-1.86-.86-4.39c1.44-2.2 6.29-2.04 8.86-3.09q.6-.25.67.4l.19 1.56q.09.82-.73.82h-.88q-.39 0-.16.32c2.82 3.81-1.23 5.91-4.49 5.67q-.34-.02-.46.29l-.1.28q-.04.13.09.17Zm-.22-4.76q-.13.25.02.48c.72 1.1 3.06 1.25 2.92-.38q-.04-.47-.47-.64-1.77-.74-2.47.54Zm-180.66-.19.6-1.71q.27-.77.97-.35l1.75 1.07q.67.4.6-.37l-.17-2.06q-.06-.82.76-.84l1.41-.03q.64-.01.64.63v2.22q0 .64.59.39l2.18-.94q.69-.31.85.44l.4 1.9q.13.63-.5.75l-2.15.38q-.84.15-.23.75l1.6 1.61q.51.5-.08.91l-1.67 1.15q-.43.29-.69-.16l-1.19-2.05q-.45-.77-.79.05l-.82 1.96q-.32.76-.97.27l-1.74-1.29q-.44-.33-.07-.75l1.38-1.54q.5-.56-.19-.84-2.67-1.08-5.33.03-.6.24-.14.7l1.54 1.54q.36.37-.05.68l-1.76 1.3q-.59.44-.93-.21l-.89-1.69q-.46-.88-.92-.01l-1 1.9q-.31.6-.83.16l-1.73-1.46q-.46-.39-.02-.79l1.45-1.3q.71-.64-.21-.89l-2.15-.58q-.63-.16-.39-.77l.77-1.87q.28-.69.92-.31l1.57.93q.79.48.72-.45l-.13-1.76a.95.95 0 0 1 1.09-1.02l1.8.27q.74.11.43.8l-.78 1.68q-.49 1.05.57.59l2.41-1.02q.62-.27.8.39l.41 1.6q.13.51.31.01Zm270.57-.27.57-1.51q.22-.57.76-.28l2.09 1.14q.64.34.5-.37l-.43-2.31q-.11-.6.5-.62l2.44-.09q.56-.01.49.54l-.27 2.27q-.1.92.69.44l1.67-1.01q.55-.34.8.26l.84 2.01q.24.57-.37.71l-2.46.56q-.96.21-.2.83l1.76 1.43q.5.4-.01.77l-2.02 1.5q-.41.31-.65-.15l-.97-1.85q-.49-.93-.98.01l-.88 1.68q-.32.61-.88.21l-1.76-1.25q-.54-.38-.06-.84l1.4-1.29q.61-.57-.15-.92-2.62-1.19-5.24 0-.67.31-.14.81l1.37 1.32q.43.42-.01.82l-1.59 1.43q-.54.48-.88-.17l-1.05-2.04q-.3-.6-.66-.03l-1.28 2.07q-.34.54-.82.14l-1.7-1.37q-.56-.45-.02-.92l1.5-1.29q.77-.67-.23-.87l-1.98-.39q-.65-.14-.48-.78l.54-2.02q.22-.85.97-.39l1.57.97q.57.35.79-.29.36-1.1-.37-2.07-.48-.64.32-.69l2.38-.16q.78-.06.66.72l-.35 2.13q-.12.77.58.42l1.83-.93q.59-.3.83.33l.52 1.37q.26.7.52.01Zm-241 3.93 1.67-6.68a.36.36 0 0 1 .36-.27l2.68.07a.36.36 0 0 1 .33.47l-3.39 10.21a.36.36 0 0 1-.34.25h-3.23a.36.36 0 0 1-.34-.25l-3.3-10.2a.36.36 0 0 1 .32-.47l2.85-.12a.36.36 0 0 1 .37.29l1.32 6.68a.36.36 0 0 0 .7.02Zm10.92-3.16 3.94 1.37q.55.19.79.72c2.72 6.02-6.01 5.55-8.88 4.02q-.63-.34-.2-.9l.7-.92q.35-.46.91-.29c1.13.34 3.24 1.43 4.14.12q.38-.54-.23-.79l-3.89-1.61q-.57-.23-.77-.81-.62-1.82.33-3.49.25-.42.7-.6 3.41-1.4 6.9.2.67.3.35.95l-.39.8q-.29.58-.92.43c-.65-.16-3.94-1.11-3.92.2q.01.45.44.6Z"/><path fill="#ff2d95" d="m139.43 113.56 2.7-.55q.52-.11.81.33l.51.75q.39.57-.22.9c-11.7 6.44-11.53-15.22-.07-9.18q.45.24.38.74c-.24 1.81-3.09 1.16-4.42 1.21q-.6.03-.86.56-1.24 2.5.26 4.86.32.5.91.38Z"/><path fill="#ff2d95" d="M150.758 116.149a5.65 5.28 88.9 0 1-5.387-5.548 5.65 5.28 88.9 0 1 5.17-5.75 5.65 5.28 88.9 0 1 5.388 5.548 5.65 5.28 88.9 0 1-5.17 5.75Zm-1.768-7.429c.1 1.39-.56 2.16.22 3.66.65 1.24 2.42 1.29 2.9-.04q.6-1.67-.27-4.19-.24-.69-.94-.47l-1.52.47q-.42.13-.39.57Zm23.6 3.68c1.97 2.42 4.3-.52 5.77 1.34a1.04 1.04 0 0 1-.51 1.64c-5.21 1.57-10.5-.51-8.46-6.91 1.48-4.65 8.42-4.85 9.65-.05q.31 1.21.38 2.45.03.63-.6.63h-5.8q-1.17 0-.43.9Zm3.45-3.99a1.76.65 1.3 0 0-1.745-.69 1.76.65 1.3 0 0-1.774.61 1.76.65 1.3 0 0 1.744.69 1.76.65 1.3 0 0 1.775-.61Zm22.93 4.81a.63.63 0 0 0-.05-1.22c-10.5-2.3-3.47-9.72 3.04-6.12q.58.32.28.91l-.4.77q-.29.56-.91.44c-.73-.13-3.88-1.09-3.94.05q-.03.44.39.6l4.26 1.58q.55.21.71.77c1.6 5.89-5.74 5.65-8.82 4.01q-.66-.35-.28-1l.66-1.11q.31-.53.84-.21 2.06 1.21 4.22.53Z"/><path fill="#ff2d95" d="M208.15 112.19c1.94 2.89 4.84-.59 6.05 1.93q.26.54-.26.83c-11.74 6.66-12.29-13.85-1.98-9.54 2.31.96 2.91 3.32 2.76 5.61q-.03.48-.51.48h-5.69a.44.44 0 0 0-.37.69Zm3.16-3.836a1.65.67-.9 0 0-1.66-.644 1.65.67-.9 0 0-1.64.696 1.65.67-.9 0 0 1.66.644 1.65.67-.9 0 0 1.64-.696Zm35.91 5.186 1.81-.18a.43.43 0 0 1 .47.43v1.8a.43.43 0 0 1-.43.43l-8.14-.05a.43.43 0 0 1-.43-.43v-1.61a.43.43 0 0 1 .43-.43h2.14a.43.43 0 0 0 .43-.43v-5.19a.43.43 0 0 0-.51-.42l-1.34.27a.43.43 0 0 1-.51-.38l-.21-1.87a.43.43 0 0 1 .43-.48h4.96a.43.43 0 0 1 .43.43v7.68a.43.43 0 0 0 .47.43Zm5.62-8.56q3.37.53 4.48.24c5.52-1.47 3.86 6.97 4.07 9.96q.05.73-.68.76l-2.06.08q-.65.03-.65-.62v-7.04q0-.63-.64-.62l-1.23.04q-.63.01-.63.65v6.95q0 .62-.63.62h-2.12q-.75 0-.75-.75v-9.55a.73.73 0 0 1 .84-.72Zm26.51 3.6 4.71 1.74q.75.27.69 1.06l-.19 2.78q-.05.62-.61.89-4.22 2-8.37-.09-.74-.37-.23-1.02l.87-1.08q.37-.47.87-.15 1.94 1.21 3.99.46a.55.54-44.5 0 0 .01-1.02l-4.04-1.55q-.5-.19-.72-.68-.89-1.95.27-3.86.3-.49.84-.66 3.33-1.02 6.61.27.79.31.42 1.08l-.39.79q-.29.61-.95.47c-.9-.18-3.4-.97-3.99-.04q-.28.44.21.61Zm20.56 8.78c4.63-.95 4.21-5.36 4.07-9.01q-.02-.56-.54-.74c-1.19-.42-3.86.73-3.4-1.82q.13-.72.85-.73l5.76-.09q.61-.01.63.6c.18 5.81.96 14.39-7.61 14.42q-.82 0-.66-.8l.23-1.15q.11-.56.67-.68Zm16.52-4.17a.55.55 0 0 0-.01-1.04q-1.99-.68-3.86-1.49c-2.54-1.11-1.41-4.95.9-5.54q3.17-.82 5.85.76.46.27.44.8c-.06 2.3-3.48.64-4.83.88a.62.62 0 0 0-.06 1.21c1.84.51 4.45.87 5.11 2.83 1.83 5.34-6.51 4.6-9 3.42q-.75-.35-.23-.99l.85-1.04q.39-.49.94-.17 1.9 1.11 3.9.37Z"/><path fill="#ff2d95" d="M327.21 116.18a5.68 5.26 89.3 0 1-5.33-5.616 5.68 5.26 89.3 0 1 5.19-5.744 5.68 5.26 89.3 0 1 5.33 5.616 5.68 5.26 89.3 0 1-5.19 5.744Zm1.488-7.034a1.44 1.44 0 0 0-1.453-1.427l-.3.002a1.44 1.44 0 0 0-1.427 1.453l.024 2.8a1.44 1.44 0 0 0 1.453 1.427l.3-.002a1.44 1.44 0 0 0 1.427-1.453l-.024-2.8Z"/><path fill="#ff2d95" d="M337.75 108.62v6.71q0 .64-.64.65l-2.23.03q-.63 0-.63-.63v-9.83q0-.72.71-.61l2.97.43q.38.06.74-.09 2.5-1.01 4.35.61.38.34.41.85l.36 8.69q.02.55-.53.55l-2.38.03q-.63 0-.63-.63v-7.06q0-.7-.69-.6l-1.19.18q-.62.09-.62.72Z"/><ellipse fill="#ff2d95" transform="rotate(4 -1580.6 1540.65)" rx="2.26" ry="2.01"/><ellipse fill="#ff2d95" transform="rotate(4.3 -1372.72 3945.173)" rx="2.33" ry="2.03"/><path fill="#fefefe" d="M82.12 128.09a.68.67 73 0 1-.63 1.19l-3.42-1.57q-.61-.28-.27-.85l.29-.49q.34-.56.9-.22l3.13 1.94Zm11.53-.06q2.54 2.36-.66 1.05l-3.1-1.27q-.62-.25-.37-.87c.74-1.78 3.21.24 4.13 1.09Zm11.16-.34q.66.17 1 1a.46.46 0 0 1-.6.59l-3.67-1.5q-.56-.23-.37-.8l.13-.37q.16-.5.68-.44 1.7.18 2.83 1.52Z"/><ellipse fill="#fefefe" transform="rotate(-5.6 1367.755 -1127.167)" rx="1.33" ry="1.15"/><path fill="#420290" d="m18.2 130.26-2.29 1.09q-.38.18-.61-.18c-.47-.77 3.54-2.85 4.17-3.17a.54.54 0 0 1 .78.48v11.72q0 .62.61.55 1.08-.12 2.12.19 1.32.39-.03.67-3.71.77-7.45.17a.46.46 0 0 1 .04-.91l2.62-.18q.56-.04.56-.6l.09-9.45q.01-.68-.61-.38Zm10.47 6.76 2.56-.11q.62-.03.68-.64l.26-2.86q.09-1.02.82-.3l.32.32q.24.24.11.56-.98 2.34 1 3.07.8.3.05.72-2.11 1.16-1 4 1.25 3.17-.85.48-1.14-1.48-.65-3.37a.7.7 0 0 0-.68-.88l-4.4-.02q-.8 0-.49-.74l3.75-9.06a.42.41 19.1 0 1 .51-.24c1.23.4-2.19 7.16-2.57 8.32q-.25.79.58.75Zm16.81-.13.8.15q.92.17.1.62l-1.34.73q-.57.31-.28.89.73 1.51-.22 2.81-.89 1.21-.85-.3l.07-3.11q.01-.58-.57-.6l-4.67-.13q-.78-.02-.47-.73l3.76-8.91a.45.45 0 0 1 .72-.17c.65.57-2.47 7.06-2.91 8.03q-.32.71.46.74l2.99.11q.68.03.68-.66v-2.51q0-.53.52-.6.19-.03.37.04.36.15.36.54v2.48q0 .49.48.58Z"/><path fill="#fefefe" d="m115.9 132.64-3.42-.22q-.49-.03-.48-.52v-.29q.01-.6.61-.6h4.99q.65 0 .65.64c0 3.3.61 8.92-.8 11.43-.58 1.02-5.89 4.65-6.21 2.27a.93.93 0 0 1 .81-1.04c5.97-.72 4.04-7.12 4.26-11.2q.03-.44-.41-.47Zm12.84 5.43c-2.04-1.13-5.88-1.35-5.77-4.3.14-3.62 5.51-3.26 7.48-1.85q.41.3.28.79c-.22.82-4.06-.12-5.36.29a.84.84 0 0 0-.04 1.59c1.75.64 4.61 1.39 5.44 3.01 2.48 4.82-5.57 4.9-8.05 3.39q-.68-.41-.12-.97l.32-.31q.34-.35.77-.11 2.55 1.37 5.03.07a.91.91 0 0 0 .02-1.6Z"/><path fill="#fefefe" d="M138.75 142.23a5.71 4.73 90.7 0 1-4.66-5.768 5.71 4.73 90.7 0 1 4.8-5.652 5.71 4.73 90.7 0 1 4.66 5.768 5.71 4.73 90.7 0 1-4.8 5.652Zm-.005-1.83a3.91 2.5 90.8 0 0 2.555-3.875 3.91 2.5 90.8 0 0-2.445-3.945 3.91 2.5 90.8 0 0-2.555 3.875 3.91 2.5 90.8 0 0 2.445 3.945Z"/><path fill="#fefefe" d="M148.5 134.64v6.73q0 .63-.62.63h-1.04q-.66 0-.64-.66l.25-9.6a.63.62-77.3 0 1 .88-.56l.84.39q.54.24 1.07-.05c6.88-3.79 5.13 6.38 5.39 9.8q.06.68-.62.68h-.88q-.63 0-.63-.62l-.01-7.77q0-.65-.62-.8-1.81-.46-3.04.96-.33.38-.33.87Zm-67.82 18.87.33 5.09q.04.61-.37 1.05-.8.86.02 1.72.43.46.38 1.08l-.36 5.13q-.05.64.57.81l1.56.45q.56.16.34.69-.36.87-1.62.68c-4.17-.64-2.63-4.78-2.25-7.45a.7.7 0 0 0-.71-.8q-1.65.05-2.41-1.3-.57-1.03.6-.93 1.26.11 2.11-.71.39-.37.32-.9c-.36-2.61-1.5-7.97 3.39-7.18q.53.09.45.62-.2 1.33-1.64 1.24-.76-.05-.71.71Z"/><path fill="#420290" d="m18.17 156.29-2.25 1.12q-.43.21-.58-.24l-.11-.36q-.07-.24.14-.37l4.11-2.53q.76-.47.77.43v11.79q0 .62.63.62h1.75q.37 0 .37.37v.31q0 .28-.28.33c-1.29.19-6.99.67-7.36-.3q-.27-.68.46-.69l2.31-.03q.62-.01.62-.62v-9.46q0-.66-.58-.37Zm10.18 6.4q1.78.83 3.34-.21.51-.34.36-.94-.34-1.28.32-2.34.48-.78.85.06.61 1.38.1 2.85-.15.44.28.6l.91.34q.94.36.04.8l-.71.35q-.47.23-.45.75l.09 2.66q.03 1.02-.82.45l-.54-.35q-.43-.29-.37-.8l.27-2.2q.09-.71-.63-.71h-4.42a.68.68 0 0 1-.63-.95l3.72-8.72q.14-.33.5-.33h.34q.61-.01.38.55l-3.16 7.55q-.17.41.23.59Zm10.75 3.15c4.68 1.56 5.78.97 5.64-4.21q-.02-.57-.52-.84-2.1-1.15-4.29-.01a.81.81 0 0 1-1.18-.73l.01-5.4q0-.65.65-.65h5.83q.79 0 .52.74-.05.14-.11.29-.08.22-.31.22h-4.22q-.62 0-.62.63v2.43q0 .68.68.68c9.47-.01 4.51 12.61-2.35 7.87-.34-.24-.47-.39-.27-.8q.17-.34.54-.22Z"/><rect fill="#420290" x="74.01" y="175.28" width=".98" height="129.44" rx=".47"/><path fill="#fefefe" d="m360.67 187.79-1.43-.08q-.74-.04-.74-.78v-.49q0-.58.57-.68l1.76-.32q.65-.12.61-.78c-.17-2.78-1.78-8.69 3.66-7.62q.58.11.38.68-.41 1.15-1.85 1.07-.83-.05-.75.77l.52 5.16q.06.53-.38.84-1.24.9.04 2.05.42.37.35.92l-.56 4.89q-.07.63.52.82l1.82.6q.31.11.31.44v.34q0 .45-.44.54c-5.53 1.13-3.56-4.97-3.66-7.64q-.03-.7-.73-.73Z"/><path fill="#ff2d95" d="M101.97 178.78c1.68 1.07.83 3.18.75 4.77q-.03.66-.66.46l-.39-.12q-.55-.17-.59-.74l-.23-3.71a.73.73 0 0 1 1.12-.66Zm2.33 4.39-.17-3.48q-.04-.64.61-.64h1.34q.7 0 .6.7l-.57 3.73q-.08.52-.61.52h-.32q-.83 0-.88-.83Zm11.45 2.54v7.36q0 .61-.59.79l-.46.15q-.68.21-.69-.49c-.01-1.52.88-8.81-1.57-8.25q-.45.1-.85-.12-.41-.23-.6-.65-.5-1.12.69-.81 1.07.28 2-.2.58-.3.42-.93c-1.01-3.88 3.65-4.01 6.12-3.11q.51.18.24.65l-.15.25q-.3.5-.88.42c-1.85-.25-4.68-.67-3.86 2.45q.14.53.69.53h2.33q1.27 0 .37.89-1.01 1-2.58.59-.63-.17-.63.48Zm12.28-6.52a.56.55-87.6 0 1 .48.53c.07 1.77-2.02 1.92-2.82.46a.82.82 0 0 1 .83-1.2l1.51.21Zm11.86 13.06h2.56a.74.74 0 0 1 .24 1.44c-7.73 2.65-5.42-8.68-5.45-12.58q0-.52-.53-.55l-2.21-.09q-.59-.02-.52-.61c.16-1.34 4.1-.92 4.9-.71q.44.12.44.57l-.1 11.86q0 .67.67.67Z"/><ellipse fill="#ff2d95" transform="rotate(-.8 13021.714 -17455.776)" rx="1.41" ry="1.1"/><ellipse fill="#ff2d95" transform="rotate(-7.9 1443.562 -1938.744)" rx="1.41" ry="1.11"/><path fill="#ff2d95" d="M326.5 180.61v2.64q0 .68-.68.68h-.55q-.61 0-.67-.61l-.33-3.59q-.04-.44.36-.61c.57-.23 2.75.12 2.06.97q-.19.23-.19.52Zm2.94.93.29 1.78q.16 1-.8.69l-.31-.09q-.52-.17-.56-.72l-.22-3.21q-.03-.43.27-.75.38-.4 1.08-.19.52.16.58.69.05.45-.15.79-.27.47-.18 1.01Z"/><path fill="#420290" d="M18.22 182.35c-.66.17-2.47 1.54-2.94.79q-.31-.51.2-.83l3.98-2.42q.78-.47.79.44v11.8q0 .62.63.62h1.62q.49 0 .5.49v.28q.01.26-.25.29c-1.39.17-7.06.58-7.39-.36q-.24-.67.47-.68l2.3-.03q.62-.01.62-.62v-9.37q0-.54-.53-.4Zm10.35 6.56 2.4.07q.66.02.75-.64l.35-2.66q.08-.6.68-.68.2-.03.37.03.39.15.39.56l-.03 2.61q-.01.54.52.66l.99.24q1.11.26.01.57-2.53.7-1.39 3.1.25.51-.15.92c-1.43 1.47-2.06-1.18-1.45-2.28a.94.94 0 0 0-.81-1.4l-4.47-.02a.49.49 0 0 1-.46-.67c.5-1.28 3.41-9.67 4.68-9.32q.59.16.35.73l-3.16 7.51q-.27.65.43.67Zm11.29-3.56a.46.45 76.9 0 0 .68.43c7.52-4.4 8.4 9.44.99 8.09-5.23-.97-5.2-15.76 3.32-13.51q.41.11.4.55v.34q0 .35-.34.27-4.72-1.04-5.05 3.83Zm2.46 7.265a3.21 2.79 93.2 0 0 2.966-3.05 3.21 2.79 93.2 0 0-2.607-3.36 3.21 2.79 93.2 0 0-2.965 3.05 3.21 2.79 93.2 0 0 2.607 3.36Z"/><path fill="#ff2d95" d="m268.79 182.95 2.23.12q.64.04.73.68.03.21-.04.38-.14.37-.54.37h-2.26q-.58 0-.56.58l.22 6.59q.01.51.53.53l3.13.08q.35.01.48.34.05.12.05.25 0 .5-.45.69c-7.22 3.07-5.95-4.91-6.09-8.57q-.02-.49-.51-.49h-1.46q-1.06 0-.47-.88.6-.9 1.77-.59.7.19.7-.54v-1.46q0-.64.64-.7l1.04-.11q.84-.08.64.73l-.32 1.27q-.17.69.54.73Zm-139.76 9.49 2.3.09q.43.02.42.45v.35q.01.58-.56.59l-7.29.12q-.65.01-.65-.64v-.4q0-.5.5-.5h2.11q.61 0 .61-.61l.08-6.96q.01-.57-.55-.46-1.25.24-2.42-.21-1.32-.51.03-.92 2.2-.67 4.46-.23.49.09.48.58l-.08 8.16q0 .56.56.59Zm25.02-.5a.4.38 72.9 0 1 .25.14c.39.48.2 1.03-.32 1.27-5.66 2.69-9.39-2.53-7.34-7.47 2.31-5.55 8.72-2.96 8.47 2.82q-.03.55-.58.55h-5.72q-.59 0-.52.59c.53 3.91 3.42 1.8 5.76 2.1Zm-5.62-5.57q-.8 1.38.79 1.38h3.05q.62 0 .71-.62c.4-2.87-3.04-3.34-4.55-.76Zm13.2 6.15a1.95 1.94 21.4 0 0 2.53-1.1q.47-1.22-.93-1.9-.4-.19-.83-.27-2.39-.44-3.82-2.36-.31-.41-.24-.92c.51-3.8 4.99-3.52 7.49-2.17q.5.26.39.81l-.06.29q-.13.67-.75.39c-1.06-.47-5.12-1.62-4.92.77q.04.55.57.74l4.32 1.57q.49.18.75.65c2.85 5.21-4.95 5.73-7.84 3.9q-.49-.31-.23-.82c.58-1.12 2.83.12 3.57.42Zm25.88-6.82-.45-.54q-.32-.4-.84-.4l-3.88-.02a.57.57 0 0 1-.25-1.09q3.8-1.83 6.91.54.5.38.5 1.01v5.96q0 .47.33.79.22.22.43.44.37.38.13.85l-.28.53q-.27.52-.8.26l-1.29-.64q-.45-.22-.88.02c-4.5 2.47-8.21-2.69-4.25-5.89q.39-.33.9-.39l3.32-.44q1.08-.14.4-.99Zm-.64 2.65c-1.91-.16-4.08.68-3.34 3.11q.15.48.63.64c2.57.84 3.7-.87 3.3-3.21q-.09-.49-.59-.54Zm9.44 4.09c1.44.13 5.02-1 2.37-2.88-1.74-1.24-5.17-.31-5.12-4.14q0-.53.39-.89 3.23-2.99 7.37-.58a.51.5-53.1 0 1 .11.78c-.83.87-3.5-.24-4.98.16q-.48.13-.64.59c-.51 1.46 4.12 2.66 5.17 3.29q.52.32.52.94v2.35q0 .65-.57.97-3.66 2.08-7.34.04-.55-.3-.31-.88c.59-1.46 2.34.19 3.03.25Zm11.46-7.38a.86.86 0 0 0-.02 1.61q2.24.84 4.63 1.72c1.58.59 1.54 3.45.17 4.52q-2.85 2.22-6.98.28-1-.47-.17-1.21.11-.09.21-.2.47-.53 1.05-.11 1.84 1.33 4.01.39.58-.26.58-.9v-.66q0-.57-.52-.8c-1.85-.79-5.34-1.19-5.3-3.86.08-4.17 8.54-3.31 7.75-.86a.5.5 0 0 1-.68.3q-2.33-1.06-4.73-.22Z"/><path fill="#ff2d95" d="M221.08 194.22a5.71 4.68 90.3 0 1-4.65-5.734 5.71 4.68 90.3 0 1 4.71-5.686 5.71 4.68 90.3 0 1 4.65 5.734 5.71 4.68 90.3 0 1-4.71 5.686Zm2.421-7.335a2.09 2.09 0 0 0-2.05-2.13l-.519-.01a2.09 2.09 0 0 0-2.13 2.05l-.063 3.32a2.09 2.09 0 0 0 2.05 2.13l.519.01a2.09 2.09 0 0 0 2.13-2.05l.063-3.32Z"/><path fill="#ff2d95" d="M231.19 190.35c1.45 4.15 5.16.51 6.05 1.59q.32.39.03.8-.65.93-1.83 1.17c-10.1 2.08-7.83-15.43 1.7-10.15q.5.27.32.81c-.41 1.23-3.25.04-4.52.21q-.5.07-.81.46-1.9 2.37-.94 5.11Zm12.5-5.8q-1.21.06-2.41-.29-1.83-.55.03-1 2.26-.54 4.62-.15.57.09.57.67v8.1q0 .62.63.62h1.84q.4 0 .48.4c.36 1.82-8.13 1.31-8.38.42q-.22-.79.59-.8l2.11-.03q.51-.01.51-.51v-6.87q0-.59-.59-.56Zm13.27.13-3.86.08a.59.59 0 0 1-.28-1.12q2-1.02 4.2-.76c4.65.54 2.94 7.03 3.8 10.51a.61.61 0 0 1-1.02.57c-2.06-2.07-5.45 2.36-7.38-1.59-2.1-4.28 2.15-5.43 5.3-5.66q.61-.05.54-.65-.12-.96-1.11-1.34a.56.35 43.9 0 0-.19-.04Zm-.49 7.56q1.69-.42 1.8-2.9a.72.71 9.8 0 0-.52-.72c-4.46-1.29-5.02 4.54-1.28 3.62Zm25.67.18c.59-.03 2.73-.33 2.57.87q-.09.65-.75.65l-7.07.09q-.64.01-.64-.64V193q0-.5.5-.5h2q.75 0 .75-.75v-6.56q0-.56-.57-.61l-2.32-.22a.66.66 0 0 1 .05-1.32l4.37-.06q.56 0 .55.55l-.11 8.23q-.01.68.67.66Z"/><path fill="#ff2d95" d="M291.83 194.228a5.71 4.68 91.5 0 1-4.528-5.83 5.71 4.68 91.5 0 1 4.827-5.586 5.71 4.68 91.5 0 1 4.53 5.83 5.71 4.68 91.5 0 1-4.829 5.586Zm2.47-7.329a2.13 2.13 0 0 0-2.104-2.156l-.46-.005a2.13 2.13 0 0 0-2.156 2.103l-.04 3.24a2.13 2.13 0 0 0 2.104 2.156l.46.006a2.13 2.13 0 0 0 2.156-2.104l.04-3.24Z"/><path fill="#ff2d95" d="M304.24 184.76c-3.84-.7-2.77 6.54-2.59 8.52q.06.67-.61.69l-.9.04q-.64.02-.64-.62v-9.93q0-.92.81-.5l1.02.53q.41.21.84.02 2.56-1.18 4.85.16.45.27.48.79l.34 8.53q.03.65-.6.85l-.51.16q-.72.23-.73-.53l-.01-6.61a2.14 2.13-84.8 0 0-1.75-2.1Zm9.54.29a.89.89 0 0 0 .04 1.71c1.73.49 5.15 1.32 5.64 3.28 1.15 4.7-5.62 4.45-8.06 2.95q-.63-.39-.11-.91l.29-.29q.48-.48 1.05-.11 1.88 1.19 4.02.4.54-.2.57-.78l.04-.79q.03-.61-.53-.85c-1.83-.76-5.62-1.2-5.28-4.05.44-3.79 8.18-3.14 7.79-.75a.56.56 0 0 1-.78.42q-2.31-1.01-4.68-.23Z"/><ellipse fill="#fefefe" transform="rotate(5.4 -1786.656 3684.257)" rx="1.69" ry="1.57"/><rect fill="#ff2d95" x="-1.76" y="-2" transform="rotate(1.7 -6383.231 5960.63)" width="3.52" height="4" rx="1.4"/><ellipse fill="#fefefe" transform="rotate(-1.4 8046.753 -13767.416)" rx="1.75" ry="1.55"/><rect fill="#420290" x="-.48" y="-38.7" transform="rotate(.1 -137454.861 56550.594)" width=".96" height="77.4" rx=".46"/><path fill="#ff2d95" d="m124.51 208.98-.34-3.29q-.07-.72.65-.7l1.23.03q.73.02.7.75c-.05 1.34.1 4.85-1.61 4.09q-.56-.26-.63-.88Zm4.93-1.47.21 1.73q.09.73-.64.78-.72.05-.91-.92-.07-.39-.05-.79.06-1.24-.56-2.36-.28-.5.26-.67l1.02-.32q.66-.2.94.43.22.52-.09 1.11-.24.48-.18 1.01Zm79.31-1.36v3.03q0 .73-.74.79l-.3.03q-.59.04-.63-.55l-.27-3.81q-.03-.49.43-.63.48-.15 1.11.33.4.3.4.81Zm3.13-.97q.56.1.47.66l-.54 3.5q-.07.42-.48.55l-.29.09q-.63.2-.7-.46l-.39-3.92q-.07-.79.71-.65l1.22.23Z"/><path fill="#05bec8" d="m243.82 205.89-.35 3.28q-.07.62-.65.81-.61.2-.87-.64-.09-.28-.12-.58l-.26-3.16q-.05-.63.58-.61l.92.04q.84.03.75.86Zm1.28 1.95-.14-2.25q-.05-.79.72-.62l.64.14q.58.13.55.73l-.17 3.72a.61.61 0 0 1-.96.48q-.89-.62-.69-1.53.07-.33.05-.67Zm45.68.53q.26 1.17-.73 1.73-.89.5-.93-.53l-.15-4.07a.7.7 0 0 1 .94-.69q1.63.61.93 2.52-.18.51-.06 1.04Z"/><rect fill="#05bec8" x="-.97" y="-2.46" transform="rotate(.5 -23626.399 33705.2)" width="1.94" height="4.92" rx=".74"/><path fill="#420290" d="m18.2 208.26-2.36 1.12q-.34.17-.51-.17-.11-.21-.09-.42.04-.29.29-.44l3.66-2.27a.69.69 0 0 1 1.06.58v11.47q0 .62.63.62h1.67q.36 0 .41.36l.06.43q.04.34-.31.35l-6.7.15q-1.01.02-.49-.85l.15-.26q.11-.18.33-.18h2.11q.6 0 .61-.61l.09-9.5q.01-.68-.61-.38Zm10.31 6.62q1.67.5 3.13-.36.54-.31.41-.92-.28-1.23.22-2.3.46-1.02.95-.01.63 1.29.06 2.67-.24.57.34.77l1.07.36q.8.28.05.66l-1.29.66q-.54.27-.26.8.68 1.31-.01 2.59-.44.81-.98.07-.81-1.09-.23-2.4.66-1.47-.95-1.47h-4.24q-.72 0-.47-.68c.43-1.16 3.51-9.93 4.7-9.21a.53.53 0 0 1 .21.66l-3.09 7.3q-.26.62.38.81Zm15.61-7.62-5.37-.01q-.73-.01-.42-.67c.44-.93 6.29-.59 7.25-.56a.83.83 0 0 1 .74 1.16c-.71 1.66-5.05 12.87-6.18 12.84a.36.36 0 0 1-.33-.5l4.78-11.54a.52.51-78.5 0 0-.47-.72Z"/><path fill="#ff2d95" d="m140.68 211.55 2.48-.46a.66.66 0 0 1 .41 1.24l-2.25 1.13a.66.66 0 0 0-.29.9l1.2 2.22a.66.66 0 0 1-1.05.78l-1.76-1.8a.66.66 0 0 0-.95.01l-1.74 1.82a.66.66 0 0 1-1.06-.75l1.16-2.24a.66.66 0 0 0-.3-.9l-2.28-1.09a.66.66 0 0 1 .4-1.24l2.48.41a.66.66 0 0 0 .77-.56l.33-2.5a.66.66 0 0 1 1.3-.01l.37 2.49a.66.66 0 0 0 .78.55Zm21.35 6.68q1.96.23 3.71-.64 1.63-.8.93.87-.36.84-1.19 1.11c-10.75 3.51-8.96-15.12 1.02-9.81a.81.8-44.8 0 1-.01 1.42c-1.24.64-2.78-.96-4.72-.21q-.54.2-.76.73-1.31 3.11.2 5.96.26.5.82.57Zm13.76-.63c1.03-2.32-3.68-2.92-5.18-4.05q-.41-.31-.49-.82c-.71-5 7.21-4.59 7.68-2.03a.5.5 0 0 1-.68.55c-.91-.37-5.11-1.32-4.9.73q.06.53.55.73l4.34 1.76a2.29 2.29 0 0 1 .94 3.55q-2.85 3.58-7.62 1.27-.87-.42-.66-1.28a.77.76-67 0 1 1.14-.46q1.98 1.21 4.18.64.49-.12.7-.59Zm6.01.15c1.93-.44 4.28 1.94 6.03-.23a1.24 1.24 0 0 0-.55-1.94c-2.36-.85-6.43-1.09-5.06-4.98q.16-.46.59-.72 3.2-1.98 6.75.03a.65.65 0 0 1-.39 1.21l-4.37-.44q-.8-.09-.8.72v.52q0 .65.61.88l4.16 1.57q.51.2.7.71c2.16 5.61-5.25 6.07-7.92 3.57q-.73-.68.25-.9Zm17.22-3.09 3.04 4.4q.37.54-.19.87c-1.67.98-3.25-2.63-4-3.67q-.34-.47-.66.02c-.69 1.05-2.05 4.34-3.73 3.61q-.57-.26-.24-.79l2.88-4.52q.3-.47-.02-.93l-2.64-3.93q-.34-.51.23-.7c1.81-.61 3 1.61 3.11 3.05a.58.58 0 0 0 1.08.25l1.71-2.87q.26-.43.76-.43h.95q.91 0 .4.75l-2.68 3.92q-.33.49 0 .97Z"/><ellipse fill="#fefefe" transform="rotate(8.1 -1376.057 1665.124)" rx="1.74" ry="1.59"/><path fill="#05bec8" d="M259.23 211.26c-7.02-4.05-7.18 10.32-.19 6.64q.43-.23.83.04l.3.19q.61.4.01.82c-4.96 3.45-9.57-1.29-7.93-6.44 1.15-3.62 4.86-4.65 7.9-2.42q.51.37.07.82l-.26.25q-.33.33-.73.1Zm4.93-.52c1.45-1.51 7.97-2.83 7.54-.14q-.09.56-.65.46c-1.43-.28-4.51-1.34-4.95.8q-.09.48.34.71c2.27 1.2 5.57 1.27 5.71 4.64q.02.48-.27.88c-1.52 2.08-7.17 3.13-8.17-.11a.51.51 0 0 1 .8-.56q2.31 1.74 4.75.62a1.35 1.35 0 0 0-.07-2.48l-4.36-1.75a1.9 1.89 32.7 0 1-.67-3.07Zm11.75 1.02c.58-4.48 8.25-2.7 7.55-.97q-.24.59-.81.32-2.33-1.12-4.67-.06a.9.9 0 0 0 .07 1.67c2.46.89 6.75 1.61 5.52 5.34q-.16.48-.57.77-3.33 2.33-7.23.19-.75-.41-.15-1.02l.28-.28q.35-.35.77-.09 2.1 1.26 4.29.47.47-.17.65-.64c1.28-3.42-6.23-1.71-5.7-5.7Z"/><path fill="#ff2d95" d="M151.43 216.24q.76.34 1 1.14c.56 1.84-1.36 3.19-2.95 2.38q-1.65-.85-.73-2.46 1.03-1.8 2.68-1.06Z"/><ellipse fill="#fefefe" transform="rotate(2.3 -5332.162 5611.651)" rx="1.77" ry="1.57"/><path fill="#fefefe" d="M301.75 218.52a1 .99-19.5 0 1 .63-1.32c5.4-1.67 1.5 7.76-.6 6.7q-.61-.31-.28-.91 1.17-2.18.25-4.47Z"/><path fill="#ff2d95" d="M124.78 231c3.11-1.05 2.31 5.99.13 4.83q-.31-.16-.34-.52l-.28-3.56q-.05-.57.49-.75Zm2.98 1.02q-.09-.92.83-1.02c1.93-.22.78 2.96 1.01 4.29q.08.45-.36.59l-.31.1q-.76.24-.84-.56l-.33-3.4Zm83.12 12.23h2.14q.53 0 .49.53l-.04.46a.56.55 85 0 1-.41.5c-7.7 2.09-5.21-8.36-5.04-12.3a.9.89 1.5 0 0-.89-.93l-2.12-.03a.72.72 0 0 1 0-1.44l4.1-.06q.64-.01.64.63v11.51q0 1.13 1.13 1.13Z"/><rect fill="#ff2d95" x="-1.06" y="-2.41" transform="rotate(.1 -133641.068 139488.678)" width="2.12" height="4.82" rx=".68"/><path fill="#ff2d95" d="M246.31 235.93q-1.28-1.87-.89-4.38.08-.55.64-.55h1.01q.55 0 .54.56l-.08 4.01a.67.67 0 0 1-1.22.36Z"/><rect fill="#05bec8" x="-.92" y="-2.45" transform="rotate(-1.8 7570.328 -8734.093)" width="1.84" height="4.9" rx=".53"/><path fill="#05bec8" d="m282.59 231.87-.46 3.78q-.07.52-.56.37l-.36-.12q-.54-.16-.59-.72l-.37-3.52q-.07-.66.59-.66h.98q.87 0 .77.87Zm11.43-.26a.78.78 0 0 1-.49 1.37l-1.19.03a.74.74 0 0 1-.7-1.03q.76-1.8 2.38-.37Zm43.76 2.76q.26 1.17-.73 1.73-.89.5-.93-.53l-.15-4.07a.7.7 0 0 1 .94-.69q1.63.61.93 2.52-.18.51-.06 1.04Z"/><rect fill="#05bec8" x="-1.03" y="-2.46" transform="rotate(.4 -33270.406 48858.052)" width="2.06" height="4.92" rx=".87"/><path fill="#420290" d="m18.07 234.33-2.17 1.1q-.32.16-.5-.14l-.15-.26q-.2-.35.14-.57l3.87-2.48a.64.64 0 0 1 .99.54v11.61q0 .62.63.62h1.62q.49 0 .5.49v.28q.01.26-.25.29c-1.39.17-7.06.58-7.39-.36q-.24-.67.47-.68l2.3-.03q.62-.01.62-.62v-9.37q0-.76-.68-.42Zm10.5 6.58 2.28.06q.66.02.81-.62c.23-.94.13-3.05 1.1-3.35q.65-.21.68.48l.09 2.67q.02.43.38.66.45.28 1.02.23 3.52-.32-.3.91-2.09.68-.96 3.09.37.79-.49.87l-.8.09q-.76.07-.69-.69l.22-2.27a.94.93-87.2 0 0-.93-1.03l-4.23-.02q-.65 0-.43-.61c.85-2.39 3.5-10.15 4.73-9.28q.37.26.2.68l-3.11 7.46q-.27.65.43.67Z"/><path fill="#420290" d="M44.6 238.82c2.47 1.59 3.29 4.44.51 6.31-4.38 2.94-10.75-2.52-5.36-5.89q.49-.31.08-.72c-3.94-3.85 1.07-8.31 5.08-5.68 2.06 1.34 1.85 3.87-.3 5.15q-.67.4-.01.83Zm.26-3.18a2.44 2.44 0 0 0-2.44-2.44 2.44 2.44 0 0 0-2.44 2.44 2.44 2.44 0 0 0 2.44 2.44 2.44 2.44 0 0 0 2.44-2.44Zm-.71 8.46c3.78-2.62-2.24-6.64-4.1-3.67-1.91 3.04 1.53 5.45 4.1 3.67Z"/><path fill="#ff2d95" d="m148.47 246.01.11 3.29q.02.52-.49.59l-1.04.14q-.55.08-.55-.48v-14.11q0-.99.84-.49l.87.51q.48.29.98.04c8.02-4.03 8.4 13.59-.14 10.11q-.61-.25-.58.4Zm4.559-7.07a2.09 2.09 0 0 0-2.016-2.162l-.32-.011a2.09 2.09 0 0 0-2.161 2.016l-.121 3.457a2.09 2.09 0 0 0 2.016 2.162l.32.011a2.09 2.09 0 0 0 2.161-2.016l.121-3.457Z"/><path fill="#ff2d95" d="M161.67 236.6q-1.67.79-3-.3-.69-.55.14-.86 3.37-1.22 6.45.41.55.3.57.92l.19 6.32q.02.48.32.84.66.8.16 1.72-.34.64-.96.27l-.87-.53q-.44-.27-.9-.03-1.87 1-4.04.54-.57-.12-.91-.6-2-2.86.2-5.56.37-.44.93-.53l3.54-.55q.45-.07.52-.52.19-1.2-1.3-1.62a1.47 1.43 39.9 0 0-1.04.08Zm-1.59 4.84c-1.58 3.3 2.81 4.18 4.33.61a1.25 1.24 5 0 0-1.43-1.7l-2.15.49q-.52.12-.75.6Zm14.22-5.56q1.73-1.23 3.84-.81.64.13.57.77l-.3 2.61q-.06.55-.62.55h-.32q-.63 0-.47-.62.23-.88-.29-1.49-.49-.57-1.03-.04-2.89 2.83-1.75 7.03.16.62.81.62h.77q.54 0 .5.53c-.1 1.43-4.52 1-5.5.87q-.51-.06-.52-.57 0-.22.04-.42.1-.44.56-.44c2.09.02 2.23-7.81-.11-8.02q-.54-.05-.48-.59c.16-1.53 3.11-.91 3.73-.07q.24.32.57.09Zm11.66 8.47 3.64-.58a.55.54 9.7 0 1 .57.8c-1.91 3.48-8.2 1.3-8.18-3.12.03-4.87 2.36-8.63 7.9-5.63q.43.23.38.71c-.14 1.25-3.51.11-4.62.26q-.47.06-.74.45-2.39 3.37.1 6.72.36.48.95.39Zm15.2-.47q.34.03.34.37v.45q0 .37-.32.55c-8.71 4.8-10.76-9.45-4.16-10.31 3.53-.46 5.4 2.53 5.01 5.81q-.05.5-.55.5h-5.51q-.68 0-.61.68c.41 3.76 3.72 1.78 5.8 1.95Zm-1.11-4.77c.53-2.84-2.83-3.11-4.77-1a.98.98 0 0 0 .72 1.64h3.28q.65 0 .77-.64Zm21.15-2.97q1.64-1.52 3.91-1.09.76.15.66.91l-.34 2.59q-.11.84-.83.4-.77-.48-.6-1.38.08-.47-.32-.72c-2.65-1.64-3.13 5.54-2.64 7.12q.17.53.72.53h.71q.45 0 .51.44c.24 1.59-4.39 1.09-5.5.94q-.56-.08-.49-.65l.05-.37q.06-.46.52-.37c2.11.39 2.4-8.27-.22-8.01a.47.47 0 0 1-.41-.75c.84-1.08 3.27-1.12 3.81.3q.15.39.46.11Zm12.42 8.28c.71-.15 3.53-1.18 3.65-.04q.05.47-.36.71c-10.77 6.13-10.69-15.18.11-9.25q.66.36.13.89l-.32.32q-.35.34-.78.13c-5.34-2.57-7.09 4.6-3.42 7.04q.45.3.99.2Z"/><ellipse fill="#fefefe" transform="rotate(4.3 -3021.445 3533.335)" rx="1.75" ry="1.53"/><path fill="#05bec8" d="M292.77 241.03q.09-1.97-.07-4.09-.05-.61-.65-.5-1.88.34-3.62-.27-1.86-.64.08-.96 2.69-.45 5.41-.1.6.08.6.69c-.05 2.96.6 8.63-.66 11-.73 1.37-4.6 4.28-6.29 2.82a.61.61 0 0 1 .33-1.07c4.96-.57 4.69-3.52 4.87-7.52Zm8.04-5.42c1.55-1.06 5.36-.83 6.14.84a.61.61 0 0 1-.86.79q-2.19-1.27-4.54-.24a.93.92-47.5 0 0 .07 1.72c1.76.6 4.44 1.2 5.31 2.75 3.25 5.81-9.22 5.17-7.88 2.55q.24-.45.73-.32c1.26.34 6.15 1.82 5.36-1.29a1.95 1.94 83.4 0 0-1.83-1.46c-3.2-.1-5.81-3.07-2.5-5.34Z"/><path fill="#05bec8" d="M314.962 246.177a5.66 4.61 92 0 1-4.41-5.818 5.66 4.61 92 0 1 4.805-5.496 5.66 4.61 92 0 1 4.41 5.818 5.66 4.61 92 0 1-4.805 5.496Zm2.508-7.407a2.2 2.2 0 0 0-2.2-2.2h-.3a2.2 2.2 0 0 0-2.2 2.2v3.3a2.2 2.2 0 0 0 2.2 2.2h.3a2.2 2.2 0 0 0 2.2-2.2v-3.3Z"/><path fill="#05bec8" d="M324.75 238.31v7.29q0 .67-.63.47l-.89-.28q-.5-.16-.49-.69l.23-9.65q.02-.92.77-.38l1.05.76q.31.22.61 0 2.78-1.97 4.91.25.39.42.4.99l.13 8.35q.01.58-.57.58h-.56q-.66 0-.68-.67c-.04-2.56 1.46-9.07-2.69-8.74a1.73 1.73 0 0 0-1.59 1.72Z"/><circle fill="#ff2d95" cx="138.9" cy="244" r="1.95"/><ellipse fill="#fefefe" transform="rotate(2 -6876.347 7467.411)" rx="1.75" ry="1.53"/><path fill="#fefefe" d="M348.75 244.52a1 .99 70.7 0 1 .63-1.33c5.44-1.62 1.5 7.78-.6 6.71q-.61-.31-.28-.91 1.18-2.18.25-4.47Z"/><path fill="#ff2d95" d="m124.58 261.09-.33-3.5q-.07-.73.67-.62l1.2.17q.61.1.62.72c.02 1.27.14 4.96-1.71 3.92q-.41-.23-.45-.69Zm4.89-1.79.12 2.01q.06.93-.83.65l-.3-.09q-.32-.11-.35-.45l-.32-3.22q-.04-.4.17-.75.38-.66 1.24-.39.51.16.57.69.05.42-.13.75-.2.37-.17.8Z"/><rect fill="#ff2d95" x="-.92" y="-2.46" transform="rotate(1.4 -10490.562 10561.545)" width="1.84" height="4.92" rx=".77"/><path fill="#ff2d95" d="m259.37 258.08-.07 3.26q-.01.69-.7.64l-.67-.05q-.63-.05-.65-.68l-.1-3.44q-.02-.52.45-.74.47-.21 1.06.01.7.26.68 1Z"/><path fill="#05bec8" d="M290.78 260.55q.18.92-.54 1.52-1.05.87-1.11-.49l-.18-4.03a.82.81 18.2 0 1 1.33-.67q1.17.94.57 2.68-.17.49-.07.99Z"/><rect fill="#05bec8" x="-1.03" y="-2.46" transform="rotate(-1.4 10764.632 -11870.274)" width="2.06" height="4.92" rx=".73"/><path fill="#05bec8" d="M303.36 258.76a.14.13-87.4 0 1-.1-.12c-.19-2.41 3.26-2.05 2.27-.04q-.29.59-.93.44l-1.24-.28Zm46.45-1.08-.29 3.42q-.05.57-.57.82-.82.4-1.08-.89-.09-.49-.09-.98 0-1.15-.34-2.27-.23-.78.58-.78h1.16q.68 0 .63.68Zm2.25-.75c1.39.62.71 3.36.66 4.66q-.02.41-.42.41h-.35q-.56 0-.61-.56l-.32-3.77a.74.74 0 0 1 1.04-.74Z"/><path fill="#420290" d="m18.08 260.34-2.16 1.07q-.43.21-.58-.24l-.11-.36q-.07-.24.14-.37l4.11-2.53q.76-.47.77.43v11.87q0 .62.62.55 1.34-.13 2.63.21 1.55.4-.02.68-4.05.73-8.12.12-1.83-.27-.05-.77 1.43-.41 2.88-.23.56.07.56-.5v-9.52q0-.75-.67-.41ZM34.23 268q-1.13.54-.79 1.74.33 1.16-.29 2.13-.52.81-1.03-.01-.63-1.01-.33-2.08.47-1.66-1.26-1.68l-3.74-.05q-.71-.01-.47-.68c.87-2.42 3.49-10.1 4.71-9.28q.38.26.21.68l-3.06 7.36q-.32.76.5.78l2.29.07q.67.02.76-.65l.35-2.72q.08-.67.73-.47c1.89.59-.75 3.33 1.87 4.05q.79.22.05.57l-.5.24Zm10.06-1.58c-1.62.69-3.62 1.12-5.03-.29-5.52-5.48 5.18-12.83 7.02-4.31q1.75 8.1-6.14 10.8-.45.15-.78-.18l-.33-.33q-.34-.34.12-.5c1.97-.66 5.63-2.29 5.74-4.77q.03-.69-.6-.42Zm.4-4.791a2.43 2.43 0 0 0-2.558-2.295l-.4.022a2.43 2.43 0 0 0-2.295 2.558l.093 1.717a2.43 2.43 0 0 0 2.558 2.295l.4-.022a2.43 2.43 0 0 0 2.295-2.558l-.093-1.717Z"/><path fill="#ff2d95" d="m183.03 262.51-1.66-.03q-1.2-.03-.35-.88l.42-.41q.33-.33.78-.21.81.21 1.44-.25.48-.35.35-.92-.23-1.1.81-1.7.82-.47.86.47l.1 1.95q.03.47.5.47h2.43q.64 0 .78.63c.28 1.33-2.37.83-3.09.89q-.65.05-.65.7v5.59a1.42 1.42 0 0 0 1.34 1.42c.62.04 3.42-.43 3.15.88q-.11.51-.61.66c-7.42 2.24-5.26-4.88-5.8-8.56q-.11-.69-.8-.7ZM148.5 272v3.2q0 .63-.63.72l-.82.11q-.55.08-.55-.48v-14.03q0-.77.72-.51l1.21.44q.47.17.92-.04c7.9-3.66 8.17 13.53-.29 10.21q-.56-.22-.56.38Zm4.49-7.406a1.79 1.79 0 0 0-1.761-1.818l-.68-.01a1.79 1.79 0 0 0-1.818 1.76l-.061 3.92a1.79 1.79 0 0 0 1.761 1.818l.68.01a1.79 1.79 0 0 0 1.818-1.76l.061-3.92Z"/><path fill="#ff2d95" d="M162.331 272.179a5.68 4.66 91.2 0 1-4.54-5.777 5.68 4.66 91.2 0 1 4.778-5.58 5.68 4.66 91.2 0 1 4.54 5.776 5.68 4.66 91.2 0 1-4.778 5.58Zm.105-1.81a3.88 2.59 90.5 0 0 2.624-3.856 3.88 2.59 90.5 0 0-2.556-3.903 3.88 2.59 90.5 0 0-2.624 3.857 3.88 2.59 90.5 0 0 2.556 3.903Z"/><path fill="#ff2d95" d="M170.94 265.81c-4.73-3.91 6.37-7.15 6.85-3.09a.5.5 0 0 1-.69.52c-.92-.37-5.35-1.36-4.85.93q.11.5.6.65c2.46.78 5.59 1.39 5.41 4.68q-.03.54-.43.9-3.36 3.07-7.77.75-.54-.29-.28-.85l.18-.39q.3-.66.94-.32 2.17 1.16 4.51.4.48-.16.59-.65c.5-2.16-4.06-2.7-5.06-3.53Zm26.54 6.16c-7.45-1.09-3.99-15.17 4.01-10.14q.46.29.29.8c-.47 1.45-8.36-2.73-5.8 6.43a1.78 1.77-12.6 0 0 2.01 1.27l3.09-.53q.51-.09.63.41c.49 1.9-3.23 1.91-4.23 1.76Zm13.51-2.04a1.09 1.09 0 0 0 .19-1.89c-2.21-1.55-4.67-.76-5.83-3.96q-.19-.51.12-.95 2.55-3.61 7.05-1.54.53.24.7.79.08.24.01.46-.19.57-.76.39c-1.33-.4-4.16-1.22-5.03.49q-.34.65.34.93c2.55 1.07 7.04 1.36 5.53 5.6q-.17.48-.6.74-3.63 2.22-7.43-.02-.57-.34-.2-.89c.61-.91 3.91.71 5.91-.15Zm13-6.74c-1.75-.48-2.85-.95-4.56 0q-1.97 1.1.22 1.62 2.45.59 4.6 1.83.49.28.67.81c1.81 5.07-5.07 5.13-7.91 3.73a.79.79 0 0 1-.26-1.21c.67-.82 3.82.81 5.74-.03q.46-.2.52-.7c.39-3.43-7.09-1.05-5.67-6.57q.13-.5.56-.78c1.24-.83 8.12-1.47 6.78 1q-.23.42-.69.3Zm10.24-.31q-2.6 2.93-1.58 6.98.16.64.82.64h1.1q.68 0 .39.61-.15.34-.79.63-.34.15-.7.19-2.15.28-4.28-.13a.53.53 0 0 1-.17-.98l.99-.57q.49-.28.49-.85v-6.17q0-.55-.54-.59-.8-.07-.96-.78-.11-.46.33-.65 2.09-.87 2.99 1.04.24.52.6.08 1.44-1.79 3.92-1.24.54.12.62.66c.1.73.37 3.13-.78 3.25q-.51.05-.61-.46l-.24-1.23a.93.92-29.7 0 0-1.6-.43Zm11.42 7.53q1.64-.5 3.28-.31 1.36.15.19.85-4.67 2.81-7.78-1.22-.35-.46-.35-1.03c.06-4.74.73-9.59 7.31-7.4q.8.26.93 1.21a.52.52 0 0 1-.57.59l-3.86-.38q-.55-.06-.86.4-2.83 4.24.62 7.08.49.39 1.09.21Z"/><ellipse fill="#fefefe" transform="rotate(3.5 -4161.856 4522.184)" rx="1.71" ry="1.55"/><path fill="#05bec8" d="M303.93 262.66c-1.11-.6-3.23.54-3.9-.76q-.45-.86.52-.87l5.04-.04q.64 0 .65.64c.05 5.38 1.78 14.03-6.47 14.31q-.58.02-.52-.56c.2-1.86 5.51-.36 5.07-6.11q-.23-2.96.01-5.87.04-.5-.4-.74Zm13.25 6.04a.79.78 18.1 0 0-.49-.96l-4.21-1.51q-.54-.19-.82-.68c-2.42-4.16 3.28-5.33 5.83-4.19q.47.22.82.6.61.67.39 1.19-.2.5-.66.2-2.41-1.59-4.81-.1-.73.46-.05.99c1.51 1.19 3.84 1.35 5.03 2.52 4.05 3.99-3.84 7.07-7.36 3.83q-1.06-.97.37-.82 1.52.16 2.98.63.45.14.91.06 1.62-.25 2.07-1.76Z"/><path fill="#05bec8" d="M326.75 272.14a5.64 4.63 90.2 0 1-4.61-5.656 5.64 4.63 90.2 0 1 4.65-5.624 5.64 4.63 90.2 0 1 4.61 5.656 5.64 4.63 90.2 0 1-4.65 5.624Zm-.01-1.64a4.02 2.62 91 0 0 2.69-3.974 4.02 2.62 91 0 0-2.55-4.065 4.02 2.62 91 0 0-2.69 3.973 4.02 2.62 91 0 0 2.55 4.065Z"/><path fill="#05bec8" d="M337.13 261.81c7.29-3.99 5.66 6.46 5.6 9.67q-.01.62-.63.54l-.73-.1q-.62-.09-.62-.72v-7.22a1.45 1.45 0 0 0-1.6-1.44c-3.89.42-2.64 6.19-2.66 8.89q0 .61-.6.58l-.67-.04q-.54-.02-.54-.56l.07-10.04q0-.77.64-.34l1.08.75q.32.22.66.03Z"/><ellipse fill="#ff2d95" transform="rotate(79.6 -92.588 218.361)" rx="2.04" ry="1.87"/><ellipse fill="#fefefe" transform="rotate(3.5 -4292.777 4526.184)" rx="1.71" ry="1.55"/><path fill="#fefefe" d="m103.44 290.27-.89-.69q-.36-.28-.31-.74l.56-5.09a1 1 0 0 0-1.06-1.1q-1.19.07-1.55-.88a.64.63-11 0 1 .58-.86c5.63-.13 3.67 4.21 3.44 7.5q-.04.66.6.84l2.1.58q.47.13.35.61l-.18.67q-.08.33-.41.4l-1.85.42q-.62.14-.58.77c.19 2.73 1.91 8.56-3.55 7.43q-.74-.15-.42-.84.45-.94 1.6-.92a.87.86-2 0 0 .89-.95c-.15-1.51-1.28-5.62.59-6.47q.6-.27.09-.68Z"/><path fill="#420290" d="m18.15 286.37-2.27 1.04q-.4.18-.57-.23-.05-.14-.09-.27-.11-.36.21-.55l3.85-2.37a.64.64 0 0 1 .97.54v11.74q0 .55.55.49 1.37-.14 2.68.24 1.41.4-.03.66-4.03.71-8.09.11-1.83-.27-.05-.77 1.43-.41 2.88-.23.56.07.56-.5v-9.52q0-.66-.6-.38Zm11.29 10.33a1.91 1.9-56.3 0 0 2.65-.53c1.79-2.72.97-7.83-3.39-5.4a1.03 1.02-13.8 0 1-1.52-.92l.1-5.21q.01-.64.65-.64h5.81q.79 0 .52.74-.05.14-.11.29-.08.22-.31.22h-4.46q-.63 0-.63.63v2.49q0 .63.62.63h2.49q.57 0 1.02.35c4.98 3.89-.29 11.81-6.12 7.25q-1.04-.81.28-.75 1.25.06 2.4.85Z"/><path fill="#420290" d="M42.365 298.07a7.07 4.42 89.8 0 1-4.445-7.055 7.07 4.42 89.8 0 1 4.395-7.085 7.07 4.42 89.8 0 1 4.445 7.055 7.07 4.42 89.8 0 1-4.395 7.085Zm.795-12.7c-4.09-.47-3.63 5.75-3.29 8.23a.32.32 0 0 0 .6.11l3.55-6.71a1.12 1.11-73 0 0-.86-1.63Zm-1.7 11.23c4.07.71 3.91-5.12 3.29-7.98q-.16-.71-.49-.06l-3.46 6.71a.92.92 0 0 0 .66 1.33Z"/><path fill="#fefefe" d="m79.95 316.24-.61-.44q-.41-.31-.39-.82l.22-5.42q.02-.56-.52-.71l-1.21-.32q-.44-.12-.44-.58v-.4q0-.54.54-.58c5.06-.42 3.32 4.67 3.22 7.44q-.02.59.54.77l1.95.64q.5.16.5.69v.26q0 .54-.53.68l-1.93.49q-.6.15-.57.77c.14 2.62 1.93 8.09-3.13 7.48q-.59-.07-.59-.67v-.5q0-.76.73-.57c3.27.85-.29-6.38 2.17-7.62q.5-.25.05-.59Z"/><path fill="#420290" d="m18.17 312.29-2.25 1.12q-.43.21-.58-.24l-.11-.36q-.07-.24.14-.37l4.11-2.53q.76-.47.77.43v11.79q0 .62.63.62h1.67q.36 0 .41.36l.04.32q.05.33-.28.37c-1.29.18-7 .6-7.36-.34q-.27-.68.46-.69l2.31-.03q.62-.01.62-.62v-9.46q0-.66-.58-.37Zm11.57 10.47q3.47.02 3.37-3.78-.08-3.09-5.16-2.46a.7.69 86.8 0 1-.78-.7l.12-5.22q.01-.6.61-.6h5.85q.51 0 .5.5v.35q.01.31-.3.32l-4.6.12q-.6.02-.6.61v2.38q0 .54.54.6l3.26.35q.56.06.9.5c3.71 4.77-1.47 10.99-6.64 6.89q-.74-.58.18-.74.95-.17 1.76.52.42.36.99.36Zm12.56-.7-.07-9.19q-.01-.75-.69-.44l-2.14.95q-.27.12-.48-.09l-.23-.22q-.32-.33.07-.57l4.12-2.56a.52.52 0 0 1 .79.44l.11 11.76q.01.61.61.61h1.52q.42 0 .56.4.06.16.03.35-.05.33-.39.37c-.76.08-6.58.55-7.4-.48q-.38-.49.23-.52l2.75-.16q.61-.04.61-.65Z"/><path fill="#fefefe" d="M81.81 337.32c-1.07-.36-5.05-1.25-3.68-2.98q.41-.51.95-.16l3.23 2.1a.58.58 0 0 1-.5 1.04Zm7.98-1.54q-.36-.14-.32-.52c.33-2.79 4.14.63 4.54 1.4q.53 1.02-.53.6l-3.69-1.48Zm11.54-.08a.58.57 30 0 1-.24-.88c1.23-1.64 3.79.75 4.7 1.58a.53.53 0 0 1-.56.89l-3.9-1.59Z"/><path fill="#420290" d="m18.17 338.29-2.25 1.12q-.43.21-.58-.24l-.11-.36q-.07-.24.14-.37l4.11-2.53q.76-.47.77.43v11.79q0 .62.63.62h1.62q.33 0 .43.31.05.12.08.25.12.39-.29.45c-1.16.16-6.78.73-7.37-.32q-.36-.66.39-.67l2.39-.03q.62-.01.62-.62v-9.47q0-.65-.58-.36Zm9.24 9.54c7.64 2.9 7.19-5.78 2.83-5.62-.81.03-1.52.58-2.49.54q-.5-.02-.5-.51v-5.7q0-.47.47-.49c1.2-.07 5.88-.42 6.46.52q.39.62-.35.64l-4.47.06q-.61.01-.61.62v2.85q0 .75.72.54c3.97-1.2 5.82 1.97 4.98 5.35-1.3 5.24-8.4 2.8-7.63 1.41q.2-.36.59-.21Zm12.63.51a.25.25 0 0 0 .18.43q2.7-.11 5.39.08 3.27.24.05.82-3.41.62-6.86.17-1.67-.21-.48-1.4c1.76-1.75 6.54-6.1 6.05-8.89-.55-3.1-3.82-2.8-5.55-.87q-.35.39-.61-.06l-.18-.3q-.12-.19.03-.37 2.4-2.78 5.17-1.66c6.19 2.5-.73 9.83-3.19 12.05Z"/></svg>
