<svg xmlns="http://www.w3.org/2000/svg" width="703" height="251" style="background-color:#fff">
  <path d="M62.7 5.7c-.4.3-.7 28.2-.7 62V129h119l.2 59.2.3 59.3 132.2.3 132.3.2.2-59.2.3-59.3 96.3-.3 96.2-.2V5H351.2C192.9 5 63 5.3 62.7 5.7zm118.1 61.5-.3 57.3-56.7.3-56.8.2V10h114l-.2 57.2zM634 67v57H186V10h448v57zM442 186v57H185v-56.3c0-31 .3-56.7.7-57 .3-.4 58.2-.7 128.5-.7H442v57z"/>
  <path d="M107.4 43.9c-4.7 2.9-6.4 5.9-6.4 11.4 0 8.2 6.4 20.7 17.9 34.9 2.5 3.2 4.9 5.8 5.2 5.8 1.4 0 15.2-19.8 18.3-26.3 4.1-8.7 5.2-14.4 3.6-19.2-2.5-7.4-13.4-11.1-19.4-6.4l-2.6 2.1-3.4-2.1c-4.2-2.6-9.1-2.7-13.2-.2zm30.4 5.1c2.8 1.7 3.2 2.5 3.2 6.3 0 2.8-1.2 6.7-3.5 11.6C134 74.1 125.3 87 123.9 87c-1.4 0-10-12.6-13.5-19.5-4.8-9.6-5.3-13.9-2.4-17 3.2-3.4 8.8-3.4 12.6-.1l2.8 2.3 3.9-2.8c4.7-3.4 6.1-3.5 10.5-.9zm97.7-8.2c-6 3.7-6 3.6-6 27.2 0 20.4.1 21.9 2 24 4.4 5 13.2 6.4 19.5 3.2 4.4-2.1 7-7.2 7-13.5V77h-9v5.3c0 6.1-1.1 7.7-5.5 7.7-5.3 0-5.5-.7-5.5-22s.2-22 5.5-22c4.4 0 5.5 1.6 5.5 7.7V59h9v-4.8c0-9.5-5.6-15.2-15-15.2-2.6 0-5.8.8-7.5 1.8zm42-.4c-6.1 2.7-6.5 4.3-6.5 27.9 0 21.4 0 21.4 2.5 24.1 6.3 6.8 19.4 6 23.8-1.3 1.4-2.5 1.7-5.9 1.7-23.1 0-22.5-.5-24.6-6.4-27.4-4.1-1.9-10.9-2-15.1-.2zm11.9 7.2c1.3 1.3 1.6 4.6 1.6 20.4 0 15.8-.3 19.1-1.6 20.4-1.8 1.9-7.5 2.1-9.2.4-1.7-1.7-1.7-39.9 0-41.6 1.7-1.7 7.4-1.5 9.2.4zm230-7.2c-6.2 2.8-6.4 3.8-6.4 27.6 0 18.3.2 21.9 1.6 23.9 3.7 5.3 14.6 6.8 20.5 2.8 4.4-3 5.9-6 5.9-12.5V77h-8v4.9c0 3.2-.6 5.5-1.6 6.5-1.8 1.9-7.5 2.1-9.2.4-.9-.9-1.2-6.9-1.2-20.8s.3-19.9 1.2-20.8c1.7-1.7 7.4-1.5 9.2.4 1 1 1.6 3.3 1.6 6.5V59h8.2l-.4-6.5c-.3-5.7-.8-7-3.6-9.7-2.6-2.7-4-3.2-8.9-3.5-3.5-.2-7 .2-8.9 1.1zM313 68v28h8V77.5c0-10.2.4-18.5.9-18.5.4 0 3 4.5 5.6 10 2.7 5.5 5.1 10 5.5 10 .3 0 3-4.8 6-10.8l5.5-10.7.3 19.2.2 19.3h8V40h-7.8l-5.8 11.9c-3.2 6.6-6.2 11.7-6.5 11.5-.4-.2-3.2-5.6-6.3-11.9L321.1 40H313v28zm55 0v28h24v-7h-16V71.1l6.8-.3 6.7-.3.3-3.3.3-3.2H376V47h16v-7h-24v28zm59 0v28h10c15.6 0 19-2.8 19-15.9 0-6.3-.3-7.4-2.9-10.3-2.9-3.3-2.9-3.3-1-5.7 1.5-1.8 1.9-3.9 1.9-10-.1-11.9-2.8-14.1-17.4-14.1H427v28zm18.8-13.5c.3 8-.7 9.5-7 9.5H435V46.9l5.3.3 5.2.3.3 7zm1.2 18.4c1.4 2.7 1.3 13.4-.2 14.9-.7.7-3.6 1.2-6.5 1.2H435V71h5.5c4.3 0 5.6.4 6.5 1.9zm32.6-31.2c-.3 1-1.9 7.5-3.6 14.5-1.6 7.1-4.3 18.4-6 25.2-1.6 6.8-3 12.9-3 13.5 0 .6 1.7 1.1 3.8 1.1h3.8l1.2-6 1.3-6h13.7l1.4 5.7c1.3 5.7 1.5 5.8 5.1 6.1 2.5.2 3.7-.1 3.7-1 0-.7-2.9-13.2-6.4-27.8l-6.3-26.5-4.1-.3c-3.2-.2-4.1.1-4.6 1.5zm6.8 22c1.1 4.9 2.1 9.8 2.4 11 .4 2.2.1 2.3-4.7 2.3-2.8 0-5.1-.3-5.1-.8-.1-1.9 4.5-21.2 5-21.2.3 0 1.4 3.9 2.4 8.7zM555 68v28h8v-9.8c.1-6.9.5-10.3 1.5-11.6.8-1.1 1.7-1.7 2-1.5.2.3 2.7 5.4 5.4 11.4l5 11 4.1.3c5.1.4 5.3 1.3-3.5-16.6-3.6-7.3-6.5-13.8-6.5-14.4 0-.9 3.1-6.5 12.2-21.6l2-3.2h-8.8l-5.8 10c-3.2 5.5-6.2 10.2-6.7 10.6-.5.3-.9-4-.9-10V40h-8v28zm-315.5 92.2c-.8 2.7-12.5 52.7-12.5 53.7 0 .6 1.7 1.1 3.8 1.1h3.8l1.2-6 1.3-6h13.8l1.3 6 1.2 6h3.8c4.1 0 4.4-.7 2.9-5.6-.5-1.6-1.6-6.1-2.5-9.9-2-9.1-8.5-36.5-9.2-38.8-.6-2.1-8.2-2.5-8.9-.5zm6.8 23c1 4.6 2 9.3 2.3 10.5.6 2.2.3 2.3-4.5 2.3-2.8 0-5.1-.3-5.1-.8 0-2.1 4.4-20.2 5-20.2.3 0 1.4 3.7 2.3 8.2zM274 187v28h25.1l-.3-3.3-.3-3.2-8.2-.3-8.3-.3V159h-8v28zm37 .5V216h9v-57h-9v28.5zm21.2-26.8c.3 1 3.4 13.6 6.9 28.1l6.4 26.3 3.9-.3 4-.3 2.9-12c1.5-6.6 4.4-18.2 6.3-25.8 4.3-17.5 4.3-17.7 0-17.7-3.3 0-3.4.2-4.6 5.2-.7 2.9-2.5 10.7-4 17.3-1.6 6.6-3.2 13.7-3.5 15.8-.4 2.1-1 3.6-1.2 3.3-.5-.5-5-19.8-8-33.9l-1.6-7.7h-4c-3.3 0-3.9.3-3.5 1.7zm47.5-1c-.4.3-.7 12.9-.7 28V215h25v-7h-17.1l.3-8.8.3-8.7 6.8-.3 6.7-.3v-6.8l-6.7-.3-6.8-.3v-16l8.3-.3 8.2-.3V159h-11.8c-6.5 0-12.2.3-12.5.7z"/>
</svg>
