<svg xmlns="http://www.w3.org/2000/svg" viewBox="0 0 1131 516"><g fill="#006fbb"><path d="M0 258v258h1131V0H0v258zm678.4-61.8c3.2.7 6.1 2.1 7.9 3.9 2.5 2.6 2.8 3.4 2.5 8.5-.4 7.8-1.6 8.4-11.5 5.9-4.4-1.2-11.2-2-15.6-2-7.4 0-8 .2-10.3 2.8-3 3.5-3.2 9.4-.5 12.9 2.1 2.6 4.6 3.8 17.6 8.8 16.8 6.3 23.9 15.3 23.8 30-.1 14-5.8 22.2-18.6 26.7-7.5 2.6-28 2.4-35.7-.3-7.2-2.5-10.2-6.7-9.8-13.8.4-7 2-7.7 10.4-4.7 17.1 6.1 30.4 2.7 30.4-8 0-5.7-3-8.3-15-13.2-20.7-8.4-28-16.6-28-31.6 0-8.1 1.6-12.7 6.2-17.7 4.7-5.1 10.2-8 17.8-9.3 6.2-1.1 20.8-.5 28.4 1.1zm73.9.3c18.7 3.9 30.7 15.6 34.7 33.6 1.9 8.6.9 28.9-1.9 36.4-8.1 22.5-27 31.5-60.5 29-8.5-.6-10.2-1-12.3-3.1l-2.3-2.3v-44.4c0-51.3-.5-48.6 9.1-49.8 9.9-1.2 26.3-.9 33.2.6zm-143.7 2 2.5 2.5-.3 35.3c-.3 30.5-.6 35.9-2.2 40.6-2.3 7-9.3 14.1-16.1 16.5-7 2.4-20.4 3.1-31 1.6-7.5-1.1-9.4-1.7-11.7-4.1-2.5-2.4-2.8-3.5-2.8-8.8 0-7.9 1.7-9 10.7-6.7 8.1 2.1 18.7 2.1 22.3 0 1.5-.9 3.6-3.1 4.6-4.8 1.7-2.8 1.9-6.1 2.4-36.3l.5-33.1 2.4-2.6c2.2-2.3 3.2-2.6 9.3-2.6 6 0 7.2.3 9.4 2.5zm-372.2 14.4c14.7 5.2 25.1 15.9 30.2 31.1 1.4 4 1.9 8.4 1.9 16-.1 12.2-2.1 20.3-6 24-2.5 2.3-3.5 2.5-15.7 2.8-15.6.4-17.5 0-19.2-3.8l-1.2-3-2.4 2.5c-3.4 3.6-10.1 5.9-15.5 5.3-12.1-1.4-19.4-13.7-18.2-30.7.8-11.8 4.7-18.8 12.1-22.2 7.4-3.4 15.9-1.8 21.9 3.8 2.4 2.3 2.7 2.4 2.7.8 0-3.3 3-5.5 7.4-5.5 8.5.1 9.6 2.8 9.6 23.5v16.6l5.2-.3c6.2-.4 6.5-1.1 6.7-12.9.2-16.2-6.4-27.7-19.9-34.6-5.1-2.6-6.3-2.8-17.5-2.8-11.1 0-12.4.2-17.7 2.8-7.3 3.6-15 11.9-17.9 19.5-3.1 8-3.1 21.4 0 29.4 2.9 7.6 10.6 15.9 17.9 19.5 4.7 2.3 7.3 2.8 15.4 3.1 8.3.4 10.8.1 16.3-1.9 7.6-2.7 11.4-2 12.9 2.3 1.4 3.9.2 5.7-5.7 8.4-15.1 6.8-35.8 5.3-49.9-3.7-9.7-6.2-17.3-16.9-20.3-28.6-1.9-7.4-1.9-20.3 0-27.8 4.5-17.3 18.7-31.2 35.8-35.1 8.5-1.9 23.4-1.2 31.1 1.5zM411.8 225c5.5 2 7.8 8.8 4.4 13-1.8 2.2-2 2.2-12 1.1-12-1.4-16.7-.8-18.9 2.5-1.4 2.2-1.4 2.6.1 4.8 1.7 2.7 2 2.8 11.9 5 7.4 1.7 15.3 5.3 17.9 8.3 4.9 5.4 6.2 16.6 2.8 24-2.4 5.3-9 9.7-16.9 11.4-6.3 1.3-24.3.6-30.4-1.1-6.6-1.9-10-10.6-5.7-14.5 1.9-1.7 2.7-1.7 9.8-.7 14.8 2.3 21.6 1.3 22.8-3.4 1-3.9-2-6.2-11-8.4-10.7-2.7-15.6-5-19.3-9.3-8-9.2-6.6-22.4 3.2-29.5 5.4-3.9 12.8-5.2 26-4.8 6.6.3 13.5 1 15.3 1.6zm65.3-.4c13 3.9 19.5 13.1 20.7 29.1.4 6.7.3 7.3-2.1 9.7l-2.6 2.6H473c-22.2 0-21.6-.2-18.3 6.7 3.3 7 12.2 9.5 26.4 7.3 7.3-1.1 8.1-1.1 9.9.5 3.9 3.5 1.5 11.2-4.2 13.6-2.3 1-7.3 1.4-16.3 1.3-14.8 0-21-1.8-28.1-7.8-13.1-11.2-15.1-38.5-3.9-53.2 7.4-9.7 24.3-14 38.6-9.8zm372.4 2.3c12 5.9 17.5 16.1 17.5 32.6 0 24.4-14.2 37.9-38.2 36.2-13.7-.9-22.6-6.5-28-17.4-2.8-5.8-3.3-7.9-3.6-16.3-.7-16.3 4.2-27.4 14.7-33.7 7.1-4.3 11.8-5.3 22.4-4.9 7.4.3 9.7.8 15.2 3.5zm74.4-3c6.5.9 10.1 4.3 10.1 9.5 0 5.6-2.2 6.7-13.6 6.4-11.7-.3-15.1 1-18 6.9-2.5 5.2-2.6 20.4-.1 25 3.7 6.9 10.4 9.2 21.8 7.4 8.2-1.4 10.9.1 10.9 5.9 0 8-5.5 10.8-21 10.9-17.9.1-29.9-7.2-34.6-21.2-2.5-7.2-2.5-23.4-.1-30.4 5.9-16.9 20.9-23.8 44.6-20.4zm-624.2 2.5 2.8 2.4.5 23c.4 16.9.8 23.3 1.8 24.5 3.2 3.9 11.8 2.9 16.3-1.9 2.3-2.5 2.4-3.1 2.9-24.1l.5-21.5 2.8-2.4c3.8-3.2 12.2-3.4 16.1-.3l2.6 2v30.7c0 30 0 30.6-2.2 32.9-1.7 1.9-3.2 2.3-7.8 2.3-6.3 0-9.4-1.7-10.4-5.5l-.7-2.6-3.5 3c-1.9 1.7-4.8 3.8-6.6 4.7-4.2 2.2-13.3 2.9-18.8 1.4s-11.3-7.1-13-12.5c-1.4-4.3-2.7-47.7-1.6-52 1.1-4.4 4.4-6.5 10.2-6.5 4.1 0 5.9.5 8.1 2.4z"/><path d="M733.3 213.7c-1 .4-1.3 7.7-1.3 31.9V277l2.6.6c1.4.4 5.2.4 8.5.1 16.2-1.4 23.3-11.6 23.2-33.2 0-17.1-5.1-26.6-16.2-29.9-5.2-1.5-14.2-2-16.8-.9zM210 249.5c-4.3 4.5-4 17.6.5 22.1 3.3 3.2 8.7 3.3 12 0 4.5-4.5 4.5-17.7-.1-22.3-3.3-3.2-9.2-3.2-12.4.2zm248.9-10c-2.7 1.4-5.9 7.8-5.9 11.5 0 1.9.7 2 12.5 2 12.3 0 12.5 0 12.5-2.3-.1-3.4-3.6-10.4-5.8-11.6-2.9-1.5-10.2-1.3-13.3.4zm369.4-.8c-3.1.6-7.1 5-8.3 9.2-.5 2-1 7.2-1 11.6 0 4.4.5 9.6 1 11.6 3.2 11.5 18.3 13.1 23.1 2.5 1.4-3.1 1.9-6.5 1.9-14.1 0-12.2-1.9-17.3-7.3-19.8-3.4-1.7-5.1-1.8-9.4-1z"/></g></svg>
