<svg xmlns="http://www.w3.org/2000/svg" width="20" height="20">
  <path fill="currentcolor" d="M16.964 10.68s-1.412 2.825-2.021 4.378c-.233.597-.377.942-.999.942h-10a.973.973 0 01-.34-.059l2.56-5.62a.5.5 0 01.47-.321H16.494c.17 0 .32.08.41.22.09.13.12.3.06.46zM3 6c0-.549.394-1 .944-1h2C6.494 5 7 5.451 7 6v1h6.944C14.494 7 15 7.451 15 8v1H6.634c-.62 0-1.151.39-1.372.96L3 14.861V6zm14.724 3.651c-.28-.41-.74-.651-1.23-.651H16V8c0-1.099-.956-2-2.056-2h-6c0-1.099-.9-2-2-2h-2C2.844 4 2 4.901 2 6v9c0 1.1.844 2 1.944 2h10c.51 0 .905-.141 1.32-.509.415-.369.484-.717.68-1.212.678-1.715 1.96-4.248 1.96-4.248.18-.46.1-.981-.18-1.38z"/>
</svg>
