<svg xmlns="http://www.w3.org/2000/svg" width="20" height="20">
  <path fill="#de9c03" d="M7.99 6.104c-.076 0-.113.038-.113.112v5.844c0 .297-.084.541-.25.73a.831.831 0 01-.654.284.828.828 0 01-.65-.284c-.169-.189-.252-.433-.252-.73v-.904c0-.074-.038-.112-.112-.112h-.848c-.074 0-.11.038-.11.112v.881c0 .588.18 1.062.54 1.422.36.361.838.541 1.432.541.596 0 1.073-.18 1.433-.541.361-.36.542-.834.542-1.422V6.216c0-.074-.037-.112-.112-.112H7.99zm5.826 4.946a2.346 2.346 0 00-.524-.686c-.227-.208-.564-.48-1.01-.814-.468-.342-.784-.615-.948-.82a1.168 1.168 0 01-.245-.753c0-.327.082-.58.245-.763a.814.814 0 01.636-.274c.275 0 .498.103.67.307.17.205.256.474.256.808v.302c0 .074.037.111.111.111h.826c.073 0 .111-.037.111-.11v-.28c0-.617-.18-1.115-.54-1.495-.36-.379-.839-.569-1.434-.569-.572 0-1.037.177-1.394.53-.357.354-.535.832-.535 1.433 0 .38.074.711.223.993.15.283.331.524.546.725.216.201.513.442.893.725.341.253.59.444.741.574.152.131.275.278.368.441.093.163.14.353.14.57 0 .318-.088.577-.263.774a.847.847 0 01-.663.295.817.817 0 01-.658-.307c-.17-.204-.257-.477-.257-.819v-.234c0-.075-.037-.112-.11-.112h-.827c-.074 0-.11.037-.11.112v.29c0 .594.18 1.076.54 1.444.36.368.834.552 1.422.552.587 0 1.063-.188 1.428-.563.363-.376.546-.876.546-1.5 0-.342-.06-.638-.184-.887"/>
</svg>
