<svg xmlns="http://www.w3.org/2000/svg" width="20" height="20">
  <path fill="#06a2ad" d="M4.763 6.09c-.075 0-.112.037-.112.111v5.86c0 .3-.084.543-.252.733a.832.832 0 0 1-.654.285.832.832 0 0 1-.654-.285c-.168-.19-.251-.434-.251-.733v-.905c0-.075-.038-.112-.113-.112h-.85c-.074 0-.112.037-.112.112v.884c0 .59.18 1.064.543 1.425.362.362.84.542 1.437.542.597 0 1.076-.18 1.437-.542.362-.36.543-.836.543-1.425V6.201c0-.074-.037-.112-.112-.112h-.85zm5.318 4.272a14.59 14.59 0 0 0-1.012-.816c-.47-.344-.787-.618-.95-.822a1.173 1.173 0 0 1-.247-.755c0-.33.082-.584.246-.767a.818.818 0 0 1 .637-.274c.276 0 .5.103.672.309.171.204.257.474.257.81v.302c0 .075.037.112.111.112h.828c.075 0 .112-.037.112-.112v-.28c0-.618-.18-1.118-.542-1.498C9.831 6.19 9.353 6 8.755 6c-.573 0-1.04.178-1.398.53-.358.356-.536.834-.536 1.439 0 .38.074.712.223.995.15.284.332.525.548.727.217.2.515.443.895.727.343.254.591.445.744.575.152.132.275.279.37.442.092.165.14.355.14.57 0 .322-.089.58-.264.779a.854.854 0 0 1-.666.296.82.82 0 0 1-.659-.308c-.172-.205-.258-.48-.258-.821v-.235c0-.075-.037-.113-.112-.113h-.827c-.075 0-.112.038-.112.113v.29c0 .597.181 1.08.543 1.449.361.368.836.553 1.425.553.59 0 1.067-.188 1.432-.565.365-.376.548-.878.548-1.504 0-.343-.06-.64-.185-.89a2.327 2.327 0 0 0-.525-.687M18 6.123c-.019-.023-.047-.034-.084-.034h-.873c-.059 0-.096.034-.111.101l-.828 5.245c-.008.016-.015.023-.022.023-.008 0-.015-.007-.023-.023l-.861-5.245c-.007-.067-.044-.101-.112-.101h-.749c-.067 0-.104.034-.112.101l-.805 5.245c-.007.016-.015.023-.022.023-.008 0-.015-.007-.023-.023l-.906-5.245c-.007-.067-.048-.101-.123-.101h-.884c-.066 0-.1.034-.1.101v.022l1.488 7.606c.015.067.056.1.123.1h.794c.066 0 .104-.033.112-.1l.805-5.29c0-.015.005-.023.016-.023.012 0 .021.008.029.023l.85 5.29c.014.067.052.1.111.1h.795c.074 0 .115-.033.122-.1l1.41-7.606c.007-.036.001-.066-.017-.089"/>
</svg>
